Pontano-Regular.ufo
<glyph name="ampersand" format="1">
  <advance width="1430"/>
  <unicode hex="0026"/>
  <outline>
    <contour>
      <point x="673" y="1491" type="curve" smooth="yes"/>
      <point x="487.398" y="1491"/>
      <point x="320.639" y="1387.96"/>
      <point x="320.639" y="1192.68" type="curve" smooth="yes"/>
      <point x="320.639" y="1102.92"/>
      <point x="350.38" y="1024.02"/>
      <point x="419" y="946" type="curve" smooth="yes"/>
      <point x="1282" y="-28" type="line"/>
      <point x="1388" y="71" type="line"/>
      <point x="566" y="992" type="line" smooth="yes"/>
      <point x="506.68" y="1058.62"/>
      <point x="482.34" y="1127.74"/>
      <point x="482.34" y="1191" type="curve" smooth="yes"/>
      <point x="482.34" y="1289.6"/>
      <point x="565.364" y="1351"/>
      <point x="678" y="1351" type="curve" smooth="yes"/>
      <point x="778.987" y="1351"/>
      <point x="862.062" y="1292.02"/>
      <point x="862.062" y="1200.18" type="curve" smooth="yes"/>
      <point x="862.062" y="1122.46"/>
      <point x="813.277" y="1013.73"/>
      <point x="539" y="905" type="curve" smooth="yes"/>
      <point x="223.371" y="779.75"/>
      <point x="97.9848" y="632.535"/>
      <point x="97.9848" y="409.332" type="curve" smooth="yes"/>
      <point x="97.9848" y="169.023"/>
      <point x="293.467" y="-25"/>
      <point x="582" y="-25" type="curve" smooth="yes"/>
      <point x="881" y="-25"/>
      <point x="1243" y="143"/>
      <point x="1319" y="780" type="curve"/>
      <point x="1173" y="802" type="line"/>
      <point x="1120" y="359"/>
      <point x="906" y="116"/>
      <point x="608" y="116" type="curve" smooth="yes"/>
      <point x="368.962" y="116"/>
      <point x="272.958" y="261.466"/>
      <point x="272.958" y="422.938" type="curve" smooth="yes"/>
      <point x="272.958" y="561.214"/>
      <point x="343.026" y="673.914"/>
      <point x="625" y="808" type="curve" smooth="yes"/>
      <point x="869" y="924"/>
      <point x="1015" y="1025"/>
      <point x="1015" y="1211" type="curve" smooth="yes"/>
      <point x="1015" y="1393"/>
      <point x="861" y="1491"/>
    </contour>
  </outline>
</glyph>
<glyph name="parenleft" format="1">
  <advance width="602"/>
  <unicode hex="0028"/>
  <outline>
    <contour>
      <point x="523" y="-181" type="curve"/>
      <point x="557" y="-79" type="line"/>
      <point x="304" y="-4"/>
      <point x="199" y="289"/>
      <point x="199" y="703" type="curve" smooth="yes"/>
      <point x="199" y="1117"/>
      <point x="304" y="1410"/>
      <point x="557" y="1485" type="curve"/>
      <point x="523" y="1587" type="line"/>
      <point x="232" y="1518"/>
      <point x="18" y="1242"/>
      <point x="18" y="703" type="curve" smooth="yes"/>
      <point x="18" y="164"/>
      <point x="232" y="-112"/>
    </contour>
  </outline>
</glyph>
<glyph name="parenright" format="1">
  <advance width="602"/>
  <unicode hex="0029"/>
  <outline>
    <contour>
      <point x="52" y="-181" type="line"/>
      <point x="343" y="-112"/>
      <point x="557" y="164"/>
      <point x="557" y="703" type="curve" smooth="yes"/>
      <point x="557" y="1242"/>
      <point x="343" y="1518"/>
      <point x="52" y="1587" type="curve"/>
      <point x="18" y="1485" type="line"/>
      <point x="271" y="1410"/>
      <point x="376" y="1117"/>
      <point x="376" y="703" type="curve" smooth="yes"/>
      <point x="376" y="289"/>
      <point x="271" y="-4"/>
      <point x="18" y="-79" type="curve"/>
    </contour>
  </outline>
</glyph>
<glyph name="asterisk" format="1">
  <advance width="826"/>
  <unicode hex="002A"/>
  <outline>
    <contour>
      <point x="363" y="759" type="line"/>
      <point x="466" y="759" type="line"/>
      <point x="457" y="1043" type="line"/>
      <point x="714" y="888" type="line"/>
      <point x="764" y="984" type="line"/>
      <point x="497" y="1114" type="line"/>
      <point x="763" y="1244" type="line"/>
      <point x="713" y="1340" type="line"/>
      <point x="457" y="1186" type="line"/>
      <point x="466" y="1468" type="line"/>
      <point x="363" y="1468" type="line"/>
      <point x="371" y="1185" type="line"/>
      <point x="114" y="1339" type="line"/>
      <point x="64" y="1243" type="line"/>
      <point x="331" y="1113" type="line"/>
      <point x="65" y="983" type="line"/>
      <point x="115" y="887" type="line"/>
      <point x="371" y="1042" type="line"/>
    </contour>
  </outline>
</glyph>
<glyph name="comma" format="1">
  <advance width="445"/>
  <unicode hex="002C"/>
  <outline>
    <contour>
      <point x="171" y="-270" type="line"/>
      <point x="313" y="-183"/>
      <point x="325" y="-56"/>
      <point x="328" y="118" type="curve"/>
      <point x="328" y="227" type="line"/>
      <point x="88" y="227" type="line"/>
      <point x="88" y="17" type="line"/>
      <point x="192" y="4" type="line"/>
      <point x="190" y="-100"/>
      <point x="135" y="-172"/>
      <point x="107" y="-196" type="curve"/>
    </contour>
  </outline>
</glyph>
<glyph name="period" format="1">
  <advance width="434"/>
  <unicode hex="002E"/>
  <outline>
    <contour>
      <point x="115" y="0" type="line"/>
      <point x="317" y="0" type="line"/>
      <point x="317" y="225" type="line"/>
      <point x="115" y="225" type="line"/>
    </contour>
  </outline>
</glyph>
<glyph name="one" format="1">
  <advance width="836"/>
  <unicode hex="0031"/>
  <outline>
    <contour>
      <point x="388" y="0" type="line"/>
      <point x="564" y="0" type="line"/>
      <point x="564" y="1464" type="line"/>
      <point x="410" y="1464" type="line"/>
      <point x="116" y="1340" type="line"/>
      <point x="168" y="1200" type="line"/>
      <point x="388" y="1300" type="line"/>
    </contour>
  </outline>
</glyph>
<glyph name="two" format="1">
  <advance width="1246"/>
  <unicode hex="0032"/>
  <outline>
    <contour>
      <point x="1063.04" y="1045.68" type="curve" smooth="yes"/>
      <point x="1063.04" y="1351.84"/>
      <point x="875.563" y="1490"/>
      <point x="619" y="1490" type="curve" smooth="yes"/>
      <point x="394" y="1490"/>
      <point x="246" y="1391"/>
      <point x="132" y="1141" type="curve"/>
      <point x="286" y="1079" type="line"/>
      <point x="370" y="1257"/>
      <point x="465" y="1350"/>
      <point x="631" y="1350" type="curve" smooth="yes"/>
      <point x="784" y="1350"/>
      <point x="888" y="1239"/>
      <point x="888" y="1056" type="curve" smooth="yes"/>
      <point x="888" y="612"/>
      <point x="187" y="509"/>
      <point x="176" y="0" type="curve"/>
      <point x="1065" y="0" type="line"/>
      <point x="1065" y="145" type="line"/>
      <point x="372" y="145" type="line"/>
      <point x="542.19" y="476.423"/>
      <point x="1063.04" y="604.783"/>
    </contour>
  </outline>
</glyph>
<glyph name="three" format="1">
  <advance width="1154"/>
  <unicode hex="0033"/>
  <outline>
    <contour>
      <point x="564.612" y="116.951" type="curve" smooth="yes"/>
      <point x="406.347" y="116.951"/>
      <point x="316.695" y="205.887"/>
      <point x="264" y="366" type="curve"/>
      <point x="115" y="316" type="line"/>
      <point x="176" y="68"/>
      <point x="365" y="-25"/>
      <point x="572" y="-25" type="curve" smooth="yes"/>
      <point x="874.669" y="-24.0011"/>
      <point x="1033.01" y="192.789"/>
      <point x="1033.01" y="404.172" type="curve" smooth="yes"/>
      <point x="1033.01" y="581.157"/>
      <point x="949.634" y="761.333"/>
      <point x="721" y="817" type="curve"/>
      <point x="898" y="871"/>
      <point x="962" y="1014"/>
      <point x="962" y="1154" type="curve" smooth="yes"/>
      <point x="962" y="1352"/>
      <point x="810" y="1490"/>
      <point x="561" y="1490" type="curve" smooth="yes"/>
      <point x="391" y="1490"/>
      <point x="249" y="1412"/>
      <point x="149" y="1256" type="curve"/>
      <point x="276" y="1180" type="line"/>
      <point x="363" y="1312"/>
      <point x="460" y="1351"/>
      <point x="568" y="1351" type="curve" smooth="yes"/>
      <point x="716" y="1351"/>
      <point x="791" y="1250"/>
      <point x="791" y="1140" type="curve" smooth="yes"/>
      <point x="791" y="1006"/>
      <point x="736" y="876"/>
      <point x="462" y="876" type="curve"/>
      <point x="462" y="741" type="line"/>
      <point x="701.166" y="741"/>
      <point x="854.118" y="659.63"/>
      <point x="854.118" y="408.222" type="curve" smooth="yes"/>
      <point x="854.118" y="254.16"/>
      <point x="767.767" y="116.951"/>
    </contour>
  </outline>
</glyph>
<glyph name="four" format="1">
  <advance width="1222"/>
  <unicode hex="0034"/>
  <outline>
    <contour>
      <point x="754" y="0" type="line"/>
      <point x="921" y="0" type="line"/>
      <point x="921" y="353" type="line"/>
      <point x="1167" y="353" type="line"/>
      <point x="1167" y="484" type="line"/>
      <point x="920" y="484" type="line"/>
      <point x="920" y="1464" type="line"/>
      <point x="677" y="1464" type="line"/>
      <point x="105" y="481" type="line"/>
      <point x="105" y="353" type="line"/>
      <point x="754" y="353" type="line"/>
    </contour>
    <contour>
      <point x="284" y="484" type="line"/>
      <point x="754" y="1327" type="line"/>
      <point x="754" y="484" type="line"/>
    </contour>
  </outline>
</glyph>
<glyph name="five" format="1">
  <advance width="1196"/>
  <unicode hex="0035"/>
  <outline>
    <contour>
      <point x="610" y="-24" type="curve" smooth="yes"/>
      <point x="909" y="-24"/>
      <point x="1101" y="174"/>
      <point x="1101" y="461" type="curve" smooth="yes"/>
      <point x="1101" y="709"/>
      <point x="955" y="928"/>
      <point x="630" y="928" type="curve" smooth="yes"/>
      <point x="564.654" y="928"/>
      <point x="470.619" y="912.654"/>
      <point x="387.132" y="869.973" type="curve"/>
      <point x="452" y="1312" type="line"/>
      <point x="987" y="1312" type="line"/>
      <point x="987" y="1464" type="line"/>
      <point x="296" y="1464" type="line"/>
      <point x="200" y="744" type="line"/>
      <point x="310" y="674" type="line"/>
      <point x="407" y="751"/>
      <point x="512" y="785"/>
      <point x="622" y="785" type="curve" smooth="yes"/>
      <point x="820" y="785"/>
      <point x="924" y="629"/>
      <point x="924" y="453" type="curve" smooth="yes"/>
      <point x="924" y="251"/>
      <point x="790" y="115"/>
      <point x="601" y="115" type="curve" smooth="yes"/>
      <point x="460" y="115"/>
      <point x="331" y="207"/>
      <point x="258" y="368" type="curve"/>
      <point x="110" y="309" type="line"/>
      <point x="202" y="72"/>
      <point x="385" y="-24"/>
    </contour>
  </outline>
</glyph>
<glyph name="six" format="1">
  <advance width="1220"/>
  <unicode hex="0036"/>
  <outline>
    <contour>
      <point x="314" y="832" type="curve"/>
      <point x="327.033" y="1187.9"/>
      <point x="463.296" y="1350.03"/>
      <point x="664.557" y="1350.03" type="curve" smooth="yes"/>
      <point x="751.375" y="1350.03"/>
      <point x="847.619" y="1321.97"/>
      <point x="940" y="1263" type="curve"/>
      <point x="988" y="1396" type="line"/>
      <point x="884" y="1460"/>
      <point x="750" y="1490"/>
      <point x="652" y="1490" type="curve" smooth="yes"/>
      <point x="338" y="1490"/>
      <point x="122" y="1199"/>
      <point x="122" y="698" type="curve" smooth="yes"/>
      <point x="122" y="251"/>
      <point x="297" y="-25"/>
      <point x="637" y="-25" type="curve" smooth="yes"/>
      <point x="938" y="-25"/>
      <point x="1103" y="227"/>
      <point x="1103" y="481" type="curve" smooth="yes"/>
      <point x="1103" y="780.702"/>
      <point x="914.716" y="947.156"/>
      <point x="661.49" y="947.156" type="curve" smooth="yes"/>
      <point x="539.353" y="947.156"/>
      <point x="417.442" y="910.616"/>
    </contour>
    <contour>
      <point x="314" y="689" type="line"/>
      <point x="417.423" y="769.44"/>
      <point x="522.06" y="812.173"/>
      <point x="641.813" y="812.173" type="curve" smooth="yes"/>
      <point x="834.198" y="812.173"/>
      <point x="922" y="708.529"/>
      <point x="922" y="477" type="curve" smooth="yes"/>
      <point x="922" y="247"/>
      <point x="811" y="117"/>
      <point x="637" y="117" type="curve" smooth="yes"/>
      <point x="382" y="117"/>
      <point x="314" y="379"/>
      <point x="314" y="651" type="curve" smooth="yes"/>
    </contour>
  </outline>
</glyph>
<glyph name="eight" format="1">
  <advance width="1194"/>
  <unicode hex="0038"/>
  <outline>
    <contour>
      <point x="121.958" y="357.244" type="curve" smooth="yes"/>
      <point x="121.958" y="155.177"/>
      <point x="293.678" y="-25"/>
      <point x="585" y="-25" type="curve" smooth="yes"/>
      <point x="901" y="-25"/>
      <point x="1078" y="160"/>
      <point x="1078" y="365" type="curve" smooth="yes"/>
      <point x="1078" y="506"/>
      <point x="1051" y="634"/>
      <point x="796" y="757" type="curve"/>
      <point x="885" y="789"/>
      <point x="1069" y="903"/>
      <point x="1069" y="1099" type="curve" smooth="yes"/>
      <point x="1069" y="1375"/>
      <point x="855" y="1490"/>
      <point x="610" y="1490" type="curve" smooth="yes"/>
      <point x="372" y="1490"/>
      <point x="138" y="1379"/>
      <point x="138" y="1101" type="curve" smooth="yes"/>
      <point x="138" y="925"/>
      <point x="281" y="806"/>
      <point x="394" y="753" type="curve"/>
      <point x="192.817" y="635.643"/>
      <point x="121.958" y="505.643"/>
    </contour>
    <contour>
      <point x="600" y="117" type="curve" smooth="yes"/>
      <point x="413.978" y="118.022"/>
      <point x="311.807" y="235.663"/>
      <point x="311.807" y="376.349" type="curve" smooth="yes"/>
      <point x="311.807" y="490.969"/>
      <point x="370.832" y="611.008"/>
      <point x="517" y="702" type="curve"/>
      <point x="732" y="640"/>
      <point x="899" y="586"/>
      <point x="899" y="368" type="curve" smooth="yes"/>
      <point x="899" y="208"/>
      <point x="747" y="117"/>
    </contour>
    <contour>
      <point x="666" y="806" type="curve"/>
      <point x="461" y="871"/>
      <point x="320" y="914"/>
      <point x="320" y="1104" type="curve" smooth="yes"/>
      <point x="320" y="1277"/>
      <point x="458" y="1350"/>
      <point x="610" y="1350" type="curve" smooth="yes"/>
      <point x="771" y="1350"/>
      <point x="889" y="1266"/>
      <point x="889" y="1101" type="curve" smooth="yes"/>
      <point x="889" y="936"/>
      <point x="759" y="853"/>
    </contour>
  </outline>
</glyph>
<glyph name="nine" format="1">
  <advance width="1220"/>
  <unicode hex="0039"/>
  <outline>
    <contour>
      <point x="905" y="634" type="curve"/>
      <point x="891.967" y="278.095"/>
      <point x="755.713" y="115.974"/>
      <point x="555.443" y="115.974" type="curve" smooth="yes"/>
      <point x="468.591" y="115.974"/>
      <point x="371.398" y="144.034"/>
      <point x="280" y="203" type="curve"/>
      <point x="231" y="70" type="line"/>
      <point x="335" y="6"/>
      <point x="469" y="-25"/>
      <point x="567" y="-25" type="curve" smooth="yes"/>
      <point x="881" y="-25"/>
      <point x="1097" y="266"/>
      <point x="1097" y="767" type="curve" smooth="yes"/>
      <point x="1097" y="1215"/>
      <point x="922" y="1490"/>
      <point x="582" y="1490" type="curve" smooth="yes"/>
      <point x="281" y="1490"/>
      <point x="116" y="1238"/>
      <point x="116" y="984" type="curve" smooth="yes"/>
      <point x="116" y="685.148"/>
      <point x="303.218" y="518.788"/>
      <point x="556.299" y="518.788" type="curve" smooth="yes"/>
      <point x="679.982" y="518.788"/>
      <point x="801.845" y="553.768"/>
    </contour>
    <contour>
      <point x="905" y="777" type="line"/>
      <point x="801.576" y="696.559"/>
      <point x="696.94" y="653.827"/>
      <point x="577.185" y="653.827" type="curve" smooth="yes"/>
      <point x="384.801" y="653.827"/>
      <point x="297" y="757.448"/>
      <point x="297" y="988" type="curve" smooth="yes"/>
      <point x="297" y="1219"/>
      <point x="408" y="1349"/>
      <point x="582" y="1349" type="curve" smooth="yes"/>
      <point x="837" y="1349"/>
      <point x="905" y="1087"/>
      <point x="905" y="815" type="curve" smooth="yes"/>
    </contour>
  </outline>
</glyph>
<glyph name="colon" format="1">
  <advance width="482"/>
  <unicode hex="003A"/>
  <outline>
    <contour>
      <point x="142" y="171" type="line"/>
      <point x="349" y="171" type="line"/>
      <point x="349" y="395" type="line"/>
      <point x="142" y="395" type="line"/>
    </contour>
    <contour>
      <point x="142" y="808" type="line"/>
      <point x="349" y="808" type="line"/>
      <point x="349" y="1033" type="line"/>
      <point x="142" y="1033" type="line"/>
    </contour>
  </outline>
</glyph>
<glyph name="semicolon" format="1">
  <advance width="478"/>
  <unicode hex="003B"/>
  <outline>
    <contour>
      <point x="216" y="-270" type="line"/>
      <point x="352" y="-183"/>
      <point x="364" y="-56"/>
      <point x="367" y="118" type="curve"/>
      <point x="367" y="227" type="line"/>
      <point x="127" y="227" type="line"/>
      <point x="127" y="17" type="line"/>
      <point x="231" y="4" type="line"/>
      <point x="229" y="-100"/>
      <point x="174" y="-166"/>
      <point x="146" y="-190" type="curve"/>
    </contour>
    <contour>
      <point x="136" y="808" type="line"/>
      <point x="355" y="808" type="line"/>
      <point x="355" y="1033" type="line"/>
      <point x="136" y="1033" type="line"/>
    </contour>
  </outline>
</glyph>
<glyph name="less" format="1">
  <advance width="1051"/>
  <unicode hex="003C"/>
  <outline>
    <contour>
      <point x="998" y="91" type="line"/>
      <point x="998" y="257" type="line"/>
      <point x="242" y="525" type="line"/>
      <point x="998" y="780" type="line"/>
      <point x="998" y="963" type="line"/>
      <point x="49" y="610" type="line"/>
      <point x="49" y="457" type="line"/>
    </contour>
  </outline>
</glyph>
<glyph name="greater" format="1">
  <advance width="1051"/>
  <unicode hex="003E"/>
  <outline>
    <contour>
      <point x="51" y="91" type="line"/>
      <point x="1000" y="444" type="line"/>
      <point x="1000" y="597" type="line"/>
      <point x="51" y="963" type="line"/>
      <point x="51" y="797" type="line"/>
      <point x="808" y="529" type="line"/>
      <point x="51" y="273" type="line"/>
    </contour>
  </outline>
</glyph>
<glyph name="at" format="1">
  <advance width="1704"/>
  <unicode hex="0040"/>
  <outline>
    <contour>
      <point x="1089" y="414" type="curve"/>
      <point x="1101.6" y="264.866"/>
      <point x="1203.61" y="227.447"/>
      <point x="1273.65" y="227.447" type="curve" smooth="yes"/>
      <point x="1447.99" y="227.447"/>
      <point x="1603" y="409.872"/>
      <point x="1603" y="721" type="curve" smooth="yes"/>
      <point x="1603" y="1117"/>
      <point x="1264" y="1381"/>
      <point x="883" y="1381" type="curve" smooth="yes"/>
      <point x="389" y="1381"/>
      <point x="102" y="984"/>
      <point x="102" y="601" type="curve" smooth="yes"/>
      <point x="102" y="234"/>
      <point x="332" y="-98"/>
      <point x="842" y="-98" type="curve" smooth="yes"/>
      <point x="990" y="-98"/>
      <point x="1138" y="-61"/>
      <point x="1288" y="18" type="curve"/>
      <point x="1236" y="117" type="line"/>
      <point x="1122" y="62"/>
      <point x="980" y="24"/>
      <point x="843" y="24" type="curve" smooth="yes"/>
      <point x="431" y="24"/>
      <point x="254" y="291"/>
      <point x="254" y="592" type="curve" smooth="yes"/>
      <point x="254" y="904"/>
      <point x="496" y="1255"/>
      <point x="886" y="1255" type="curve" smooth="yes"/>
      <point x="1188" y="1255"/>
      <point x="1461" y="1069"/>
      <point x="1461" y="733" type="curve" smooth="yes"/>
      <point x="1461" y="441.716"/>
      <point x="1376.92" y="334.831"/>
      <point x="1283.48" y="334.831" type="curve" smooth="yes"/>
      <point x="1218.52" y="334.831"/>
      <point x="1180.76" y="381.042"/>
      <point x="1180.76" y="444.668" type="curve" smooth="yes"/>
      <point x="1180.76" y="453.476"/>
      <point x="1181.5" y="462.612"/>
      <point x="1183" y="472" type="curve" smooth="yes"/>
      <point x="1273" y="1042" type="line"/>
      <point x="1155" y="1042" type="line"/>
      <point x="1129" y="969" type="line"/>
      <point x="1045" y="1032"/>
      <point x="956" y="1066"/>
      <point x="871" y="1066" type="curve" smooth="yes"/>
      <point x="619" y="1066"/>
      <point x="437" y="804"/>
      <point x="437" y="550" type="curve" smooth="yes"/>
      <point x="437" y="366.891"/>
      <point x="551.544" y="191.875"/>
      <point x="772.433" y="191.875" type="curve" smooth="yes"/>
      <point x="903.87" y="191.875"/>
      <point x="1040.05" y="282.808"/>
    </contour>
    <contour>
      <point x="781" y="308" type="curve" smooth="yes"/>
      <point x="655" y="308"/>
      <point x="588" y="417"/>
      <point x="588" y="547" type="curve" smooth="yes"/>
      <point x="588" y="780"/>
      <point x="710" y="953"/>
      <point x="883" y="953" type="curve" smooth="yes"/>
      <point x="954" y="953"/>
      <point x="1029" y="926"/>
      <point x="1103" y="873" type="curve"/>
      <point x="1064" y="631" type="line" smooth="yes"/>
      <point x="1020" y="360"/>
      <point x="871" y="308"/>
    </contour>
  </outline>
</glyph>
<glyph name="B" format="1">
  <advance width="1314"/>
  <unicode hex="0042"/>
  <outline>
    <contour>
      <point x="657" y="1464" type="move" name="top"/>
    </contour>
    <contour>
      <point x="146" y="0" type="line"/>
      <point x="557" y="0" type="line" smooth="yes"/>
      <point x="1015" y="0"/>
      <point x="1231" y="85"/>
      <point x="1231" y="413" type="curve" smooth="yes"/>
      <point x="1231" y="618"/>
      <point x="1148" y="754"/>
      <point x="921" y="780" type="curve"/>
      <point x="1135.87" y="808.114"/>
      <point x="1186.02" y="935.593"/>
      <point x="1186.02" y="1104.78" type="curve" smooth="yes"/>
      <point x="1186.02" y="1416.48"/>
      <point x="893.471" y="1464"/>
      <point x="593" y="1464" type="curve" smooth="yes"/>
      <point x="146" y="1464" type="line"/>
    </contour>
    <contour>
      <point x="321" y="133" type="line"/>
      <point x="321" y="717" type="line"/>
      <point x="609" y="717" type="line" smooth="yes"/>
      <point x="897" y="717"/>
      <point x="1057" y="684"/>
      <point x="1057" y="417" type="curve" smooth="yes"/>
      <point x="1057" y="143"/>
      <point x="823" y="133"/>
      <point x="602" y="133" type="curve" smooth="yes"/>
    </contour>
    <contour>
      <point x="600" y="1331" type="line" smooth="yes"/>
      <point x="840.137" y="1331"/>
      <point x="1019.1" y="1326.32"/>
      <point x="1019.1" y="1094.62" type="curve" smooth="yes"/>
      <point x="1019.1" y="871.119"/>
      <point x="900.885" y="845"/>
      <point x="595" y="845" type="curve" smooth="yes"/>
      <point x="321" y="845" type="line"/>
      <point x="321" y="1331" type="line"/>
    </contour>
  </outline>
</glyph>
<glyph name="D" format="1">
  <advance width="1429"/>
  <unicode hex="0044"/>
  <outline>
    <contour>
      <point x="714.5" y="1464" type="move" name="top"/>
    </contour>
    <contour>
      <point x="321" y="134" type="line"/>
      <point x="321" y="1330" type="line"/>
      <point x="667" y="1330" type="line" smooth="yes"/>
      <point x="1036" y="1330"/>
      <point x="1136" y="1129"/>
      <point x="1136" y="737" type="curve" smooth="yes"/>
      <point x="1136" y="290"/>
      <point x="1007" y="134"/>
      <point x="609" y="134" type="curve" smooth="yes"/>
    </contour>
    <contour>
      <point x="146" y="0" type="line"/>
      <point x="663" y="0" type="line" smooth="yes"/>
      <point x="1115" y="0"/>
      <point x="1313" y="207"/>
      <point x="1313" y="738" type="curve" smooth="yes"/>
      <point x="1313" y="1280"/>
      <point x="1091" y="1464"/>
      <point x="667" y="1464" type="curve" smooth="yes"/>
      <point x="146" y="1464" type="line"/>
    </contour>
  </outline>
</glyph>
<glyph name="E" format="1">
  <advance width="1216"/>
  <unicode hex="0045"/>
  <outline>
    <contour>
      <point x="146" y="0" type="line"/>
      <point x="1143" y="0" type="line"/>
      <point x="1143" y="133" type="line"/>
      <point x="321" y="133" type="line"/>
      <point x="321" y="711" type="line"/>
      <point x="1027" y="711" type="line"/>
      <point x="1027" y="848" type="line"/>
      <point x="321" y="848" type="line"/>
      <point x="321" y="1331" type="line"/>
      <point x="1132" y="1331" type="line"/>
      <point x="1132" y="1464" type="line"/>
      <point x="146" y="1464" type="line"/>
    </contour>
    <contour>
      <point x="749" y="1" type="move" name="ogonek"/>
    </contour>
    <contour>
      <point x="608" y="0" type="move" name="bot"/>
    </contour>
    <contour>
      <point x="608" y="1464" type="move" name="top"/>
    </contour>
  </outline>
</glyph>
<glyph name="F" format="1">
  <advance width="1192"/>
  <unicode hex="0046"/>
  <outline>
    <contour>
      <point x="146" y="0" type="line"/>
      <point x="321" y="0" type="line"/>
      <point x="321" y="702" type="line"/>
      <point x="1028" y="702" type="line"/>
      <point x="1028" y="838" type="line"/>
      <point x="321" y="838" type="line"/>
      <point x="321" y="1331" type="line"/>
      <point x="1137" y="1331" type="line"/>
      <point x="1137" y="1464" type="line"/>
      <point x="146" y="1464" type="line"/>
    </contour>
    <contour>
      <point x="596" y="0" type="move" name="bot"/>
    </contour>
    <contour>
      <point x="596" y="1464" type="move" name="top"/>
    </contour>
  </outline>
</glyph>
<glyph name="G" format="1">
  <advance width="1407"/>
  <unicode hex="0047"/>
  <outline>
    <contour>
      <point x="703.5" y="1464" type="move" name="top"/>
    </contour>
    <contour>
      <point x="734" y="-25" type="curve" smooth="yes"/>
      <point x="918" y="-25"/>
      <point x="1055" y="53"/>
      <point x="1118" y="166" type="curve"/>
      <point x="1153" y="0" type="line"/>
      <point x="1268" y="0" type="line"/>
      <point x="1268" y="0"/>
      <point x="1278" y="428"/>
      <point x="1278" y="581" type="curve" smooth="yes"/>
      <point x="1278" y="803" type="line"/>
      <point x="758" y="803" type="line"/>
      <point x="758" y="653" type="line"/>
      <point x="1104" y="653" type="line"/>
      <point x="1104" y="447" type="line" smooth="yes"/>
      <point x="1104" y="220"/>
      <point x="918" y="116"/>
      <point x="752" y="116" type="curve" smooth="yes"/>
      <point x="438" y="116"/>
      <point x="301" y="318"/>
      <point x="301" y="721" type="curve" smooth="yes"/>
      <point x="301" y="1149"/>
      <point x="426" y="1350"/>
      <point x="747" y="1350" type="curve" smooth="yes"/>
      <point x="931" y="1350"/>
      <point x="1054" y="1256"/>
      <point x="1121" y="1074" type="curve"/>
      <point x="1273" y="1126" type="line"/>
      <point x="1189" y="1363"/>
      <point x="1018" y="1490"/>
      <point x="750" y="1490" type="curve" smooth="yes"/>
      <point x="366" y="1490"/>
      <point x="116" y="1278"/>
      <point x="116" y="722" type="curve" smooth="yes"/>
      <point x="116" y="166"/>
      <point x="388" y="-25"/>
    </contour>
  </outline>
</glyph>
<glyph name="H" format="1">
  <advance width="1483"/>
  <unicode hex="0048"/>
  <outline>
    <contour>
      <point x="146" y="0" type="line"/>
      <point x="321" y="0" type="line"/>
      <point x="321" y="700" type="line"/>
      <point x="1162" y="700" type="line"/>
      <point x="1162" y="0" type="line"/>
      <point x="1337" y="0" type="line"/>
      <point x="1337" y="1464" type="line"/>
      <point x="1162" y="1464" type="line"/>
      <point x="1162" y="839" type="line"/>
      <point x="321" y="839" type="line"/>
      <point x="321" y="1464" type="line"/>
      <point x="146" y="1464" type="line"/>
    </contour>
    <contour>
      <point x="741.5" y="0" type="move" name="bot"/>
    </contour>
    <contour>
      <point x="741.5" y="1464" type="move" name="top"/>
    </contour>
  </outline>
</glyph>
<glyph name="I" format="1">
  <advance width="464"/>
  <unicode hex="0049"/>
  <outline>
    <contour>
      <point x="232" y="1464" type="move" name="top"/>
    </contour>
    <contour>
      <point x="237" y="0" type="move" name="ogonek"/>
    </contour>
    <contour>
      <point x="148" y="0" type="line"/>
      <point x="323" y="0" type="line"/>
      <point x="323" y="1464" type="line"/>
      <point x="148" y="1464" type="line"/>
    </contour>
  </outline>
</glyph>
<glyph name="J" format="1">
  <advance width="997"/>
  <unicode hex="004A"/>
  <outline>
    <contour>
      <point x="776" y="1464" type="move" name="top"/>
    </contour>
    <contour>
      <point x="426" y="-23" type="curve" smooth="yes"/>
      <point x="740" y="-23"/>
      <point x="861" y="166"/>
      <point x="861" y="544" type="curve" smooth="yes"/>
      <point x="861" y="1464" type="line"/>
      <point x="686" y="1464" type="line"/>
      <point x="686" y="541" type="line" smooth="yes"/>
      <point x="686" y="294"/>
      <point x="653" y="120"/>
      <point x="435" y="119" type="curve" smooth="yes"/>
      <point x="299" y="119"/>
      <point x="222" y="205"/>
      <point x="184" y="376" type="curve"/>
      <point x="27" y="333" type="line"/>
      <point x="70" y="116"/>
      <point x="198" y="-23"/>
    </contour>
  </outline>
</glyph>
<glyph name="K" format="1">
  <advance width="1274"/>
  <unicode hex="004B"/>
  <outline>
    <contour>
      <point x="146" y="0" type="line"/>
      <point x="321" y="0" type="line"/>
      <point x="321" y="545" type="line"/>
      <point x="563" y="795" type="line"/>
      <point x="1072" y="0" type="line"/>
      <point x="1272" y="0" type="line"/>
      <point x="683" y="918" type="line"/>
      <point x="1212" y="1464" type="line"/>
      <point x="1000" y="1464" type="line"/>
      <point x="321" y="754" type="line"/>
      <point x="321" y="1464" type="line"/>
      <point x="146" y="1464" type="line"/>
    </contour>
    <contour>
      <point x="637" y="0" type="move" name="bot"/>
    </contour>
    <contour>
      <point x="637" y="1464" type="move" name="top"/>
    </contour>
  </outline>
</glyph>
<glyph name="L" format="1">
  <advance width="1045"/>
  <unicode hex="004C"/>
  <outline>
    <contour>
      <point x="146" y="0" type="line"/>
      <point x="1060" y="0" type="line"/>
      <point x="1060" y="133" type="line"/>
      <point x="321" y="133" type="line"/>
      <point x="321" y="1464" type="line"/>
      <point x="146" y="1464" type="line"/>
    </contour>
    <contour>
      <point x="472" y="1023" type="move" name="caron.alt"/>
    </contour>
    <contour>
      <point x="237" y="723" type="move" name="mid"/>
    </contour>
    <contour>
      <point x="522.5" y="1464" type="move" name="top"/>
    </contour>
    <contour>
      <point x="522.5" y="0" type="move" name="bot"/>
    </contour>
  </outline>
</glyph>
<glyph name="N" format="1">
  <advance width="1498"/>
  <unicode hex="004E"/>
  <outline>
    <contour>
      <point x="146" y="0" type="line"/>
      <point x="304" y="0" type="line"/>
      <point x="304" y="1256" type="line"/>
      <point x="1197" y="0" type="line"/>
      <point x="1352" y="0" type="line"/>
      <point x="1352" y="1464" type="line"/>
      <point x="1199" y="1464" type="line"/>
      <point x="1199" y="267" type="line"/>
      <point x="340" y="1464" type="line"/>
      <point x="146" y="1464" type="line"/>
    </contour>
    <contour>
      <point x="749" y="0" type="move" name="bot"/>
    </contour>
    <contour>
      <point x="749" y="1464" type="move" name="top"/>
    </contour>
  </outline>
</glyph>
<glyph name="O" format="1">
  <advance width="1486"/>
  <unicode hex="004F"/>
  <outline>
    <contour>
      <point x="742" y="115" type="curve" smooth="yes"/>
      <point x="412" y="115"/>
      <point x="302" y="317"/>
      <point x="302" y="741" type="curve" smooth="yes"/>
      <point x="302" y="1116"/>
      <point x="398" y="1348"/>
      <point x="741" y="1348" type="curve" smooth="yes"/>
      <point x="1086" y="1348"/>
      <point x="1184" y="1117"/>
      <point x="1184" y="740" type="curve" smooth="yes"/>
      <point x="1184" y="312"/>
      <point x="1074" y="115"/>
    </contour>
    <contour>
      <point x="740" y="-24" type="curve" smooth="yes"/>
      <point x="1135" y="-24"/>
      <point x="1369" y="189"/>
      <point x="1369" y="741" type="curve" smooth="yes"/>
      <point x="1369" y="1285"/>
      <point x="1125" y="1488"/>
      <point x="741" y="1488" type="curve" smooth="yes"/>
      <point x="358" y="1488"/>
      <point x="116" y="1286"/>
      <point x="116" y="740" type="curve" smooth="yes"/>
      <point x="116" y="182"/>
      <point x="353" y="-24"/>
    </contour>
    <contour>
      <point x="800" y="0" type="move" name="ogonek"/>
    </contour>
    <contour>
      <point x="743" y="0" type="move" name="bot"/>
    </contour>
    <contour>
      <point x="743" y="1464" type="move" name="top"/>
    </contour>
  </outline>
</glyph>
<glyph name="Q" format="1">
  <advance width="1496"/>
  <unicode hex="0051"/>
  <outline>
    <contour>
      <point x="1276" y="-353" type="line"/>
      <point x="1406" y="-255" type="line"/>
      <point x="1144" y="96" type="line"/>
      <point x="1290" y="211"/>
      <point x="1369" y="418"/>
      <point x="1369" y="741" type="curve" smooth="yes"/>
      <point x="1369" y="1285"/>
      <point x="1125" y="1488"/>
      <point x="741" y="1488" type="curve" smooth="yes"/>
      <point x="358" y="1488"/>
      <point x="116" y="1286"/>
      <point x="116" y="740" type="curve" smooth="yes"/>
      <point x="116" y="182"/>
      <point x="353" y="-24"/>
      <point x="740" y="-24" type="curve" smooth="yes"/>
      <point x="845" y="-24"/>
      <point x="938" y="-9"/>
      <point x="1018" y="23" type="curve"/>
    </contour>
    <contour>
      <point x="742" y="115" type="curve" smooth="yes"/>
      <point x="412" y="115"/>
      <point x="302" y="317"/>
      <point x="302" y="741" type="curve" smooth="yes"/>
      <point x="302" y="1116"/>
      <point x="398" y="1348"/>
      <point x="741" y="1348" type="curve" smooth="yes"/>
      <point x="1086" y="1348"/>
      <point x="1184" y="1117"/>
      <point x="1184" y="740" type="curve" smooth="yes"/>
      <point x="1184" y="312"/>
      <point x="1074" y="115"/>
    </contour>
  </outline>
</glyph>
<glyph name="S" format="1">
  <advance width="1222"/>
  <unicode hex="0053"/>
  <outline>
    <contour>
      <point x="611" y="1464" type="move" name="top"/>
    </contour>
    <contour>
      <point x="615" y="-25" type="curve" smooth="yes"/>
      <point x="955" y="-25"/>
      <point x="1160" y="123"/>
      <point x="1160" y="393" type="curve" smooth="yes"/>
      <point x="1160" y="658"/>
      <point x="1000" y="752"/>
      <point x="719" y="844" type="curve" smooth="yes"/>
      <point x="476" y="923"/>
      <point x="303" y="947"/>
      <point x="303" y="1138" type="curve" smooth="yes"/>
      <point x="303" y="1287"/>
      <point x="443" y="1351"/>
      <point x="641" y="1351" type="curve" smooth="yes"/>
      <point x="794" y="1351"/>
      <point x="916" y="1286"/>
      <point x="998" y="1145" type="curve"/>
      <point x="1123" y="1240" type="line"/>
      <point x="1002" y="1422"/>
      <point x="855" y="1491"/>
      <point x="618" y="1491" type="curve" smooth="yes"/>
      <point x="335" y="1491"/>
      <point x="119" y="1373"/>
      <point x="119" y="1125" type="curve" smooth="yes"/>
      <point x="119" y="869"/>
      <point x="313" y="799"/>
      <point x="566" y="718" type="curve" smooth="yes"/>
      <point x="871" y="621"/>
      <point x="976" y="579"/>
      <point x="977" y="387" type="curve" smooth="yes"/>
      <point x="977" y="189"/>
      <point x="817" y="117"/>
      <point x="632" y="117" type="curve" smooth="yes"/>
      <point x="390" y="117"/>
      <point x="258" y="212"/>
      <point x="193" y="437" type="curve"/>
      <point x="45" y="373" type="line"/>
      <point x="98" y="86"/>
      <point x="350" y="-25"/>
    </contour>
  </outline>
</glyph>
<glyph name="T" format="1">
  <advance width="1119"/>
  <unicode hex="0054"/>
  <outline>
    <contour>
      <point x="481" y="0" type="line"/>
      <point x="656" y="0" type="line"/>
      <point x="656" y="1331" type="line"/>
      <point x="1110" y="1331" type="line"/>
      <point x="1110" y="1464" type="line"/>
      <point x="9" y="1464" type="line"/>
      <point x="9" y="1331" type="line"/>
      <point x="481" y="1331" type="line"/>
    </contour>
    <contour>
      <point x="559.5" y="0" type="move" name="bot"/>
    </contour>
    <contour>
      <point x="559.5" y="1023" type="move" name="mid"/>
    </contour>
    <contour>
      <point x="559.5" y="1464" type="move" name="top"/>
    </contour>
  </outline>
</glyph>
<glyph name="W" format="1">
  <advance width="1835"/>
  <unicode hex="0057"/>
  <outline>
    <contour>
      <point x="429" y="0" type="line"/>
      <point x="563" y="0" type="line"/>
      <point x="924" y="1129" type="line"/>
      <point x="1246" y="0" type="line"/>
      <point x="1398" y="0" type="line"/>
      <point x="1823" y="1464" type="line"/>
      <point x="1656" y="1464" type="line"/>
      <point x="1333" y="260" type="line"/>
      <point x="998" y="1464" type="line"/>
      <point x="874" y="1464" type="line"/>
      <point x="503" y="281" type="line"/>
      <point x="195" y="1464" type="line"/>
      <point x="12" y="1464" type="line"/>
    </contour>
    <contour>
      <point x="917.5" y="0" type="move" name="bot"/>
    </contour>
    <contour>
      <point x="917.5" y="1464" type="move" name="top"/>
    </contour>
  </outline>
</glyph>
<glyph name="Z" format="1">
  <advance width="1176"/>
  <unicode hex="005A"/>
  <outline>
    <contour>
      <point x="45" y="0" type="line"/>
      <point x="1134" y="0" type="line"/>
      <point x="1140" y="132" type="line"/>
      <point x="269" y="132" type="line"/>
      <point x="1134" y="1351" type="line"/>
      <point x="1134" y="1464" type="line"/>
      <point x="128" y="1464" type="line"/>
      <point x="128" y="1332" type="line"/>
      <point x="909" y="1332" type="line"/>
      <point x="45" y="118" type="line"/>
    </contour>
    <contour>
      <point x="588" y="0" type="move" name="bot"/>
    </contour>
    <contour>
      <point x="588" y="1464" type="move" name="top"/>
    </contour>
  </outline>
</glyph>
<glyph name="bracketleft" format="1">
  <advance width="708"/>
  <unicode hex="005B"/>
  <outline>
    <contour>
      <point x="132" y="-52" type="line"/>
      <point x="602" y="-52" type="line"/>
      <point x="602" y="77" type="line"/>
      <point x="307" y="77" type="line"/>
      <point x="307" y="1352" type="line"/>
      <point x="602" y="1352" type="line"/>
      <point x="602" y="1480" type="line"/>
      <point x="132" y="1480" type="line"/>
    </contour>
  </outline>
</glyph>
<glyph name="bracketright" format="1">
  <advance width="707"/>
  <unicode hex="005D"/>
  <outline>
    <contour>
      <point x="124" y="-52" type="line"/>
      <point x="594" y="-52" type="line"/>
      <point x="594" y="1480" type="line"/>
      <point x="124" y="1480" type="line"/>
      <point x="124" y="1352" type="line"/>
      <point x="419" y="1352" type="line"/>
      <point x="419" y="77" type="line"/>
      <point x="124" y="77" type="line"/>
    </contour>
  </outline>
</glyph>
<glyph name="underscore" format="1">
  <advance width="870"/>
  <unicode hex="005F"/>
  <outline>
    <contour>
      <point x="99" y="-118" type="line"/>
      <point x="750" y="-118" type="line"/>
      <point x="750" y="-1" type="line"/>
      <point x="99" y="-1" type="line"/>
    </contour>
  </outline>
</glyph>
<glyph name="a" format="1">
  <advance width="1002"/>
  <unicode hex="0061"/>
  <outline>
    <contour>
      <point x="822" y="0" type="move" name="ogonek"/>
    </contour>
    <contour>
      <point x="501" y="1023" type="move" name="top"/>
    </contour>
    <contour>
      <point x="394" y="-25" type="curve" smooth="yes"/>
      <point x="541" y="-25"/>
      <point x="654" y="28"/>
      <point x="726" y="128" type="curve"/>
      <point x="741" y="0" type="line"/>
      <point x="887" y="0" type="line"/>
      <point x="887" y="676" type="line" smooth="yes"/>
      <point x="887" y="929"/>
      <point x="755" y="1045"/>
      <point x="513" y="1045" type="curve" smooth="yes"/>
      <point x="345" y="1045"/>
      <point x="229" y="1001"/>
      <point x="119" y="919" type="curve"/>
      <point x="119" y="919"/>
      <point x="187" y="819"/>
      <point x="187" y="818" type="curve"/>
      <point x="281" y="887"/>
      <point x="380" y="924"/>
      <point x="505" y="924" type="curve" smooth="yes"/>
      <point x="676" y="924"/>
      <point x="717" y="856"/>
      <point x="717" y="645" type="curve" smooth="yes"/>
      <point x="717" y="594" type="line"/>
      <point x="604" y="577" type="line" smooth="yes"/>
      <point x="288" y="530"/>
      <point x="90" y="491"/>
      <point x="90" y="235" type="curve" smooth="yes"/>
      <point x="90" y="57"/>
      <point x="225" y="-25"/>
    </contour>
    <contour>
      <point x="421" y="95" type="curve" smooth="yes"/>
      <point x="294.895" y="95"/>
      <point x="247.988" y="146.875"/>
      <point x="247.988" y="253.123" type="curve" smooth="yes"/>
      <point x="247.988" y="377.676"/>
      <point x="308.316" y="418.379"/>
      <point x="587" y="464" type="curve"/>
      <point x="717" y="486" type="line"/>
      <point x="717" y="243" type="line"/>
      <point x="637" y="147"/>
      <point x="542" y="95"/>
    </contour>
  </outline>
</glyph>
<glyph name="b" format="1">
  <advance width="1113"/>
  <unicode hex="0062"/>
  <outline>
    <contour>
      <point x="594" y="-24" type="curve" smooth="yes"/>
      <point x="865" y="-24"/>
      <point x="1017" y="182"/>
      <point x="1017" y="510" type="curve" smooth="yes"/>
      <point x="1017" y="857"/>
      <point x="850" y="1045"/>
      <point x="598" y="1045" type="curve" smooth="yes"/>
      <point x="464" y="1045"/>
      <point x="362" y="983"/>
      <point x="296" y="882" type="curve"/>
      <point x="296" y="1473" type="line"/>
      <point x="126" y="1473" type="line"/>
      <point x="126" y="-1" type="line"/>
      <point x="258" y="-1" type="line"/>
      <point x="266" y="166" type="line"/>
      <point x="325" y="49"/>
      <point x="432" y="-24"/>
    </contour>
    <contour>
      <point x="585" y="97" type="curve" smooth="yes"/>
      <point x="360" y="97"/>
      <point x="291" y="233"/>
      <point x="291" y="521" type="curve" smooth="yes"/>
      <point x="291" y="820"/>
      <point x="423" y="925"/>
      <point x="586" y="925" type="curve" smooth="yes"/>
      <point x="756" y="925"/>
      <point x="844" y="780"/>
      <point x="844" y="516" type="curve" smooth="yes"/>
      <point x="844" y="239"/>
      <point x="759" y="97"/>
    </contour>
    <contour>
      <point x="556.5" y="1023" type="move" name="top"/>
    </contour>
  </outline>
</glyph>
<glyph name="d" format="1">
  <advance width="1111"/>
  <unicode hex="0064"/>
  <outline>
    <contour>
      <point x="520" y="-24" type="curve" smooth="yes"/>
      <point x="682" y="-24"/>
      <point x="786" y="51"/>
      <point x="845" y="166" type="curve"/>
      <point x="853" y="2" type="line"/>
      <point x="985" y="2" type="line"/>
      <point x="985" y="1476" type="line"/>
      <point x="815" y="1476" type="line"/>
      <point x="815" y="891" type="line"/>
      <point x="751" y="987"/>
      <point x="652" y="1045"/>
      <point x="522" y="1045" type="curve" smooth="yes"/>
      <point x="268" y="1045"/>
      <point x="96" y="863"/>
      <point x="96" y="510" type="curve" smooth="yes"/>
      <point x="96" y="182"/>
      <point x="249" y="-24"/>
    </contour>
    <contour>
      <point x="547.533" y="96.5361" type="curve" smooth="yes"/>
      <point x="355.725" y="96.5361"/>
      <point x="268" y="234.843"/>
      <point x="268" y="518" type="curve" smooth="yes"/>
      <point x="268" y="782.93"/>
      <point x="357.391" y="924.027"/>
      <point x="533.49" y="924.027" type="curve" smooth="yes"/>
      <point x="695.366" y="924.027"/>
      <point x="823" y="816.275"/>
      <point x="823" y="521" type="curve" smooth="yes"/>
      <point x="823" y="247.73"/>
      <point x="737.547" y="96.5361"/>
    </contour>
    <contour>
      <point x="555.5" y="1023" type="move" name="mid"/>
    </contour>
    <contour>
      <point x="947" y="1023" type="move" name="caron.alt"/>
    </contour>
    <contour>
      <point x="555.5" y="1023" type="move" name="top"/>
    </contour>
  </outline>
</glyph>
<glyph name="f" format="1">
  <advance width="630"/>
  <unicode hex="0066"/>
  <outline>
    <contour>
      <point x="212" y="0" type="line"/>
      <point x="382" y="0" type="line"/>
      <point x="382" y="897" type="line"/>
      <point x="589" y="897" type="line"/>
      <point x="589" y="1023" type="line"/>
      <point x="382" y="1023" type="line"/>
      <point x="381.949" y="1159.71" type="line" smooth="yes"/>
      <point x="381.949" y="1299.14"/>
      <point x="396.991" y="1344"/>
      <point x="484" y="1344" type="curve" smooth="yes"/>
      <point x="522" y="1344"/>
      <point x="559" y="1332"/>
      <point x="591" y="1316" type="curve"/>
      <point x="634" y="1426" type="line"/>
      <point x="599" y="1449"/>
      <point x="529" y="1474"/>
      <point x="465" y="1474" type="curve" smooth="yes"/>
      <point x="288" y="1474"/>
      <point x="212" y="1385"/>
      <point x="212" y="1139" type="curve" smooth="yes"/>
      <point x="212" y="1023" type="line"/>
      <point x="38" y="1023" type="line"/>
      <point x="38" y="897" type="line"/>
      <point x="212" y="897" type="line"/>
    </contour>
    <contour>
      <point x="315" y="1344" type="move" name="top"/>
    </contour>
  </outline>
</glyph>
<glyph name="g" format="1">
  <advance width="1121"/>
  <unicode hex="0067"/>
  <outline>
    <contour>
      <point x="543.612" y="-448.009" type="curve" smooth="yes"/>
      <point x="829.02" y="-448.009"/>
      <point x="997" y="-281.538"/>
      <point x="997" y="34" type="curve" smooth="yes"/>
      <point x="997" y="1023" type="line"/>
      <point x="852" y="1023" type="line"/>
      <point x="836" y="860" type="line"/>
      <point x="772" y="974"/>
      <point x="666" y="1045"/>
      <point x="522" y="1045" type="curve" smooth="yes"/>
      <point x="269" y="1045"/>
      <point x="86" y="860"/>
      <point x="86" y="510" type="curve" smooth="yes"/>
      <point x="86" y="186"/>
      <point x="253" y="-24"/>
      <point x="524" y="-24" type="curve" smooth="yes"/>
      <point x="668" y="-24"/>
      <point x="766" y="34"/>
      <point x="828" y="127" type="curve"/>
      <point x="828" y="33" type="line" smooth="yes"/>
      <point x="828" y="-188.01"/>
      <point x="750.082" y="-320.014"/>
      <point x="543.814" y="-320.014" type="curve" smooth="yes"/>
      <point x="395.424" y="-320.014"/>
      <point x="311.378" y="-267.23"/>
      <point x="245" y="-185" type="curve"/>
      <point x="153" y="-279" type="line"/>
      <point x="223.566" y="-367.456"/>
      <point x="360.315" y="-448.009"/>
    </contour>
    <contour>
      <point x="533" y="97" type="curve" smooth="yes"/>
      <point x="359" y="97"/>
      <point x="258" y="240"/>
      <point x="258" y="516" type="curve" smooth="yes"/>
      <point x="258" y="775"/>
      <point x="363" y="925"/>
      <point x="532" y="925" type="curve" smooth="yes"/>
      <point x="699" y="925"/>
      <point x="828" y="828"/>
      <point x="828" y="505" type="curve" smooth="yes"/>
      <point x="828" y="227"/>
      <point x="753" y="97"/>
    </contour>
    <contour>
      <point x="560.5" y="0" type="move" name="bot"/>
    </contour>
    <contour>
      <point x="539" y="1023" type="move" name="top"/>
    </contour>
  </outline>
</glyph>
<glyph name="h" format="1">
  <advance width="1106"/>
  <unicode hex="0068"/>
  <outline>
    <contour>
      <point x="126" y="0" type="line"/>
      <point x="297" y="0" type="line"/>
      <point x="297" y="538" type="line"/>
      <point x="305" y="750"/>
      <point x="379" y="924"/>
      <point x="607" y="924" type="curve" smooth="yes"/>
      <point x="772" y="924"/>
      <point x="818" y="808"/>
      <point x="818" y="603" type="curve" smooth="yes"/>
      <point x="818" y="0" type="line"/>
      <point x="988" y="0" type="line"/>
      <point x="988" y="588" type="line" smooth="yes"/>
      <point x="988" y="794"/>
      <point x="960" y="1044"/>
      <point x="637" y="1044" type="curve" smooth="yes"/>
      <point x="478" y="1044"/>
      <point x="366" y="981"/>
      <point x="297" y="866" type="curve"/>
      <point x="297" y="1474" type="line"/>
      <point x="126" y="1474" type="line"/>
    </contour>
    <contour>
      <point x="553" y="0" type="move" name="bot"/>
    </contour>
    <contour>
      <point x="553" y="1023" type="move" name="mid"/>
    </contour>
    <contour>
      <point x="639" y="1220" type="move" name="top"/>
    </contour>
  </outline>
</glyph>
<glyph name="k" format="1">
  <advance width="1029"/>
  <unicode hex="006B"/>
  <outline>
    <contour>
      <point x="126" y="0" type="line"/>
      <point x="297" y="0" type="line"/>
      <point x="297" y="352" type="line"/>
      <point x="493" y="539" type="line"/>
      <point x="847" y="0" type="line"/>
      <point x="1039" y="0" type="line"/>
      <point x="603" y="645" type="line"/>
      <point x="999" y="1023" type="line"/>
      <point x="806" y="1023" type="line"/>
      <point x="297" y="533" type="line"/>
      <point x="297" y="1474" type="line"/>
      <point x="126" y="1474" type="line"/>
    </contour>
    <contour>
      <point x="514.5" y="0" type="move" name="bot"/>
    </contour>
    <contour>
      <point x="639" y="1220" type="move" name="top"/>
    </contour>
  </outline>
</glyph>
<glyph name="l" format="1">
  <advance width="445"/>
  <unicode hex="006C"/>
  <outline>
    <contour>
      <point x="135" y="0" type="line"/>
      <point x="305" y="0" type="line"/>
      <point x="305" y="1474" type="line"/>
      <point x="135" y="1474" type="line"/>
    </contour>
    <contour>
      <point x="303" y="1023" type="move" name="caron.alt"/>
    </contour>
    <contour>
      <point x="222.5" y="1023" type="move" name="mid"/>
    </contour>
    <contour>
      <point x="235" y="1474" type="move" name="top"/>
    </contour>
    <contour>
      <point x="222.5" y="0" type="move" name="bot"/>
    </contour>
  </outline>
</glyph>
<glyph name="n" format="1">
  <advance width="1107"/>
  <unicode hex="006E"/>
  <outline>
    <contour>
      <point x="126" y="0" type="line"/>
      <point x="296" y="0" type="line"/>
      <point x="296" y="535" type="line"/>
      <point x="303" y="742"/>
      <point x="380" y="925"/>
      <point x="607" y="925" type="curve" smooth="yes"/>
      <point x="772" y="925"/>
      <point x="817" y="808"/>
      <point x="817" y="602" type="curve" smooth="yes"/>
      <point x="817" y="0" type="line"/>
      <point x="987" y="0" type="line"/>
      <point x="987" y="588" type="line" smooth="yes"/>
      <point x="987" y="793"/>
      <point x="958" y="1045"/>
      <point x="637" y="1045" type="curve" smooth="yes"/>
      <point x="478" y="1045"/>
      <point x="365" y="984"/>
      <point x="296" y="868" type="curve"/>
      <point x="296" y="1023" type="line"/>
      <point x="126" y="1023" type="line"/>
    </contour>
    <contour>
      <point x="553.5" y="0" type="move" name="bot"/>
    </contour>
    <contour>
      <point x="626" y="1023" type="move" name="top"/>
    </contour>
  </outline>
</glyph>
<glyph name="w" format="1">
  <advance width="1492"/>
  <unicode hex="0077"/>
  <outline>
    <contour>
      <point x="344" y="0" type="line"/>
      <point x="491" y="0" type="line"/>
      <point x="744" y="738" type="line"/>
      <point x="981" y="0" type="line"/>
      <point x="1128" y="0" type="line"/>
      <point x="1478" y="1023" type="line"/>
      <point x="1311" y="1023" type="line"/>
      <point x="1063" y="215" type="line"/>
      <point x="799" y="1023" type="line"/>
      <point x="703" y="1023" type="line"/>
      <point x="426" y="215" type="line"/>
      <point x="189" y="1023" type="line"/>
      <point x="13" y="1023" type="line"/>
    </contour>
    <contour>
      <point x="746" y="0" type="move" name="bot"/>
    </contour>
    <contour>
      <point x="757" y="1023" type="move" name="top"/>
    </contour>
  </outline>
</glyph>
<glyph name="x" format="1">
  <advance width="1131"/>
  <unicode hex="0078"/>
  <outline>
    <contour>
      <point x="81" y="0" type="line"/>
      <point x="262" y="0" type="line"/>
      <point x="542" y="392" type="line"/>
      <point x="829" y="0" type="line"/>
      <point x="1016" y="0" type="line"/>
      <point x="639" y="514" type="line"/>
      <point x="1008" y="1023" type="line"/>
      <point x="826" y="1023" type="line"/>
      <point x="552" y="632" type="line"/>
      <point x="266" y="1023" type="line"/>
      <point x="79" y="1023" type="line"/>
      <point x="453" y="512" type="line"/>
    </contour>
  </outline>
</glyph>
<glyph name="y" format="1">
  <advance width="980"/>
  <unicode hex="0079"/>
  <outline>
    <contour>
      <point x="67" y="-304" type="line"/>
      <point x="108.611" y="-315.246"/>
      <point x="144.786" y="-319.139"/>
      <point x="184.907" y="-319.139" type="curve" smooth="yes"/>
      <point x="393.08" y="-319.139"/>
      <point x="474.998" y="-188.838"/>
      <point x="581" y="85" type="curve" smooth="yes"/>
      <point x="946" y="1023" type="line"/>
      <point x="778" y="1023" type="line"/>
      <point x="495" y="268" type="line"/>
      <point x="211" y="1023" type="line"/>
      <point x="36" y="1023" type="line"/>
      <point x="409" y="92" type="line"/>
      <point x="391" y="40" type="line"/>
      <point x="335" y="-132"/>
      <point x="278" y="-173"/>
      <point x="163" y="-173" type="curve" smooth="yes"/>
      <point x="140" y="-173"/>
      <point x="115" y="-170"/>
      <point x="86" y="-166" type="curve"/>
    </contour>
    <contour>
      <point x="490" y="0" type="move" name="bot"/>
    </contour>
    <contour>
      <point x="511" y="1023" type="move" name="top"/>
    </contour>
  </outline>
</glyph>
<glyph name="braceleft" format="1">
  <advance width="644"/>
  <unicode hex="007B"/>
  <outline>
    <contour>
      <point x="616" y="-130" type="curve"/>
      <point x="616" y="-23" type="line"/>
      <point x="374" y="-23"/>
      <point x="364" y="42"/>
      <point x="364" y="381" type="curve" smooth="yes"/>
      <point x="364" y="563"/>
      <point x="330" y="676"/>
      <point x="201" y="707" type="curve"/>
      <point x="330" y="738"/>
      <point x="364" y="851"/>
      <point x="364" y="1033" type="curve" smooth="yes"/>
      <point x="364" y="1372"/>
      <point x="374" y="1437"/>
      <point x="616" y="1437" type="curve"/>
      <point x="616" y="1544" type="line"/>
      <point x="225.642" y="1544"/>
      <point x="182" y="1403.97"/>
      <point x="182" y="1029" type="curve" smooth="yes"/>
      <point x="182" y="901"/>
      <point x="180" y="775"/>
      <point x="19" y="763" type="curve"/>
      <point x="19" y="651" type="line"/>
      <point x="179.88" y="639.009"/>
      <point x="181.98" y="506.623"/>
      <point x="182" y="376" type="curve" smooth="yes"/>
      <point x="182" y="6"/>
      <point x="230" y="-130"/>
    </contour>
  </outline>
</glyph>
<glyph name="bar" format="1">
  <advance width="416"/>
  <unicode hex="007C"/>
  <outline>
    <contour>
      <point x="123" y="-197" type="line"/>
      <point x="299" y="-197" type="line"/>
      <point x="299" y="1502" type="line"/>
      <point x="123" y="1502" type="line"/>
    </contour>
  </outline>
</glyph>
<glyph name="braceright" format="1">
  <advance width="644"/>
  <unicode hex="007D"/>
  <outline>
    <contour>
      <point x="19" y="-130" type="line"/>
      <point x="409.505" y="-130"/>
      <point x="452.999" y="10.1659"/>
      <point x="452.999" y="385.302" type="curve" smooth="yes"/>
      <point x="452.999" y="513.181"/>
      <point x="454.905" y="639.284"/>
      <point x="616" y="651" type="curve"/>
      <point x="616" y="763" type="line"/>
      <point x="454.556" y="774.741"/>
      <point x="452.999" y="900.538"/>
      <point x="452.999" y="1030.34" type="curve" smooth="yes"/>
      <point x="452.999" y="1404.58"/>
      <point x="408.718" y="1544"/>
      <point x="19" y="1544" type="curve"/>
      <point x="19" y="1437" type="line"/>
      <point x="261" y="1437"/>
      <point x="271" y="1372"/>
      <point x="271" y="1033" type="curve" smooth="yes"/>
      <point x="271" y="851"/>
      <point x="305" y="738"/>
      <point x="434" y="707" type="curve"/>
      <point x="305" y="676"/>
      <point x="271" y="563"/>
      <point x="271" y="381" type="curve" smooth="yes"/>
      <point x="271" y="42"/>
      <point x="261" y="-23"/>
      <point x="19" y="-23" type="curve"/>
    </contour>
  </outline>
</glyph>
<glyph name="asciitilde" format="1">
  <advance width="962"/>
  <unicode hex="007E"/>
  <outline>
    <contour>
      <point x="237" y="805" type="curve" smooth="yes"/>
      <point x="335.618" y="805"/>
      <point x="604.911" y="683.923"/>
      <point x="775.42" y="683.923" type="curve" smooth="yes"/>
      <point x="878.993" y="683.923"/>
      <point x="936.153" y="769.267"/>
      <point x="945" y="958" type="curve"/>
      <point x="802" y="958" type="line"/>
      <point x="784" y="875"/>
      <point x="780" y="846"/>
      <point x="723" y="846" type="curve" smooth="yes"/>
      <point x="645.977" y="846"/>
      <point x="342.153" y="960.089"/>
      <point x="210.005" y="960.089" type="curve" smooth="yes"/>
      <point x="120.622" y="960.089"/>
      <point x="31.5656" y="925.137"/>
      <point x="17" y="695" type="curve"/>
      <point x="159" y="695" type="line"/>
      <point x="180" y="798"/>
      <point x="205" y="805"/>
    </contour>
  </outline>
</glyph>
<glyph name="brokenbar" format="1">
  <advance width="416"/>
  <unicode hex="00A6"/>
  <outline>
    <contour>
      <point x="121" y="-198" type="line"/>
      <point x="297" y="-198" type="line"/>
      <point x="297" y="467" type="line"/>
      <point x="121" y="467" type="line"/>
    </contour>
    <contour>
      <point x="121" y="849" type="line"/>
      <point x="297" y="849" type="line"/>
      <point x="297" y="1504" type="line"/>
      <point x="121" y="1504" type="line"/>
    </contour>
  </outline>
</glyph>
<glyph name="section" format="1">
  <advance width="1005"/>
  <unicode hex="00A7"/>
  <outline>
    <contour>
      <point x="301" y="986" type="curve"/>
      <point x="197.716" y="895.88"/>
      <point x="165.942" y="822.636"/>
      <point x="165.942" y="749.702" type="curve" smooth="yes"/>
      <point x="165.942" y="442.171"/>
      <point x="757.181" y="459.711"/>
      <point x="757.181" y="264.417" type="curve" smooth="yes"/>
      <point x="757.181" y="166.989"/>
      <point x="680.482" y="117"/>
      <point x="539" y="117" type="curve" smooth="yes"/>
      <point x="393" y="117"/>
      <point x="295" y="176"/>
      <point x="249" y="317" type="curve"/>
      <point x="127" y="273" type="line"/>
      <point x="166" y="49"/>
      <point x="370" y="-25"/>
      <point x="535" y="-25" type="curve" smooth="yes"/>
      <point x="759.784" y="-25"/>
      <point x="907.385" y="73.7069"/>
      <point x="907.385" y="270.652" type="curve" smooth="yes"/>
      <point x="907.385" y="363.411"/>
      <point x="844.771" y="434.152"/>
      <point x="773" y="482" type="curve"/>
      <point x="861.739" y="575.839"/>
      <point x="878.159" y="647.32"/>
      <point x="878.159" y="721.537" type="curve" smooth="yes"/>
      <point x="878.159" y="1011.09"/>
      <point x="325" y="1016.83"/>
      <point x="325" y="1205" type="curve" smooth="yes"/>
      <point x="325" y="1300.76"/>
      <point x="392.938" y="1354"/>
      <point x="533.494" y="1354" type="curve" smooth="yes"/>
      <point x="642.462" y="1354"/>
      <point x="715.986" y="1324.21"/>
      <point x="775" y="1217" type="curve"/>
      <point x="775" y="1218"/>
      <point x="884" y="1285"/>
      <point x="884" y="1285" type="curve"/>
      <point x="811" y="1437"/>
      <point x="705" y="1490"/>
      <point x="528" y="1490" type="curve" smooth="yes"/>
      <point x="309" y="1490"/>
      <point x="157" y="1391"/>
      <point x="157" y="1207" type="curve" smooth="yes"/>
      <point x="157" y="1089"/>
      <point x="233" y="1027"/>
    </contour>
    <contour>
      <point x="655" y="542" type="curve"/>
      <point x="471.829" y="626.486"/>
      <point x="313.86" y="662.079"/>
      <point x="313.86" y="764.01" type="curve" smooth="yes"/>
      <point x="313.86" y="805.65"/>
      <point x="340.223" y="858.362"/>
      <point x="402" y="930" type="curve"/>
      <point x="607.548" y="847.781"/>
      <point x="721.823" y="807.314"/>
      <point x="721.823" y="709.822" type="curve" smooth="yes"/>
      <point x="721.823" y="667.395"/>
      <point x="700.181" y="614.168"/>
    </contour>
  </outline>
</glyph>
<glyph name="dieresis" format="1">
  <advance width="860"/>
  <unicode hex="00A8"/>
  <outline>
    <contour>
      <point x="111" y="1180" type="line"/>
      <point x="305" y="1180" type="line"/>
      <point x="305" y="1378" type="line"/>
      <point x="111" y="1378" type="line"/>
    </contour>
    <contour>
      <point x="518" y="1180" type="line"/>
      <point x="712" y="1180" type="line"/>
      <point x="712" y="1378" type="line"/>
      <point x="518" y="1378" type="line"/>
    </contour>
    <contour>
      <point x="430" y="1023" type="move" name="_top"/>
    </contour>
  </outline>
</glyph>
<glyph name="copyright" format="1">
  <advance width="1702"/>
  <unicode hex="00A9"/>
  <outline>
    <contour>
      <point x="857" y="325" type="curve" smooth="yes"/>
      <point x="996" y="325"/>
      <point x="1096" y="393"/>
      <point x="1139" y="542" type="curve"/>
      <point x="1061" y="569" type="line"/>
      <point x="1028" y="466"/>
      <point x="973" y="409"/>
      <point x="861" y="409" type="curve" smooth="yes"/>
      <point x="685" y="409"/>
      <point x="620" y="525"/>
      <point x="620" y="780" type="curve" smooth="yes"/>
      <point x="620" y="1035"/>
      <point x="685" y="1150"/>
      <point x="861" y="1150" type="curve" smooth="yes"/>
      <point x="973" y="1150"/>
      <point x="1028" y="1094"/>
      <point x="1061" y="991" type="curve"/>
      <point x="1139" y="1018" type="line"/>
      <point x="1096" y="1166"/>
      <point x="996" y="1235"/>
      <point x="857" y="1235" type="curve" smooth="yes"/>
      <point x="643" y="1235"/>
      <point x="524" y="1104"/>
      <point x="524" y="780" type="curve" smooth="yes"/>
      <point x="524" y="456"/>
      <point x="643" y="325"/>
    </contour>
    <contour>
      <point x="849" y="106" type="curve" smooth="yes"/>
      <point x="480" y="106"/>
      <point x="189" y="371"/>
      <point x="189" y="773" type="curve" smooth="yes"/>
      <point x="189" y="1166"/>
      <point x="481" y="1444"/>
      <point x="850" y="1444" type="curve" smooth="yes"/>
      <point x="1220" y="1444"/>
      <point x="1513" y="1136"/>
      <point x="1513" y="773" type="curve" smooth="yes"/>
      <point x="1513" y="411"/>
      <point x="1219" y="106"/>
    </contour>
    <contour>
      <point x="850" y="53" type="curve" smooth="yes"/>
      <point x="1251" y="53"/>
      <point x="1579" y="375"/>
      <point x="1579" y="774" type="curve" smooth="yes"/>
      <point x="1579" y="1175"/>
      <point x="1251" y="1497"/>
      <point x="850" y="1497" type="curve" smooth="yes"/>
      <point x="451" y="1497"/>
      <point x="123" y="1205"/>
      <point x="123" y="774" type="curve" smooth="yes"/>
      <point x="123" y="335"/>
      <point x="451" y="53"/>
    </contour>
  </outline>
</glyph>
<glyph name="logicalnot" format="1">
  <advance width="1024"/>
  <unicode hex="00AC"/>
  <outline>
    <contour>
      <point x="795" y="331" type="line"/>
      <point x="897" y="331" type="line"/>
      <point x="897" y="756" type="line"/>
      <point x="135" y="756" type="line"/>
      <point x="135" y="653" type="line"/>
      <point x="795" y="653" type="line"/>
    </contour>
  </outline>
</glyph>
<glyph name="registered" format="1">
  <advance width="1702"/>
  <unicode hex="00AE"/>
  <outline>
    <contour>
      <point x="1084" y="379" type="line"/>
      <point x="1192" y="379" type="line"/>
      <point x="1006" y="792" type="line"/>
      <point x="1121" y="826"/>
      <point x="1179" y="900"/>
      <point x="1179" y="1017" type="curve" smooth="yes"/>
      <point x="1179" y="1173"/>
      <point x="1071" y="1248"/>
      <point x="857" y="1248" type="curve" smooth="yes"/>
      <point x="578" y="1248" type="line"/>
      <point x="578" y="381" type="line"/>
      <point x="676" y="381" type="line"/>
      <point x="676" y="775" type="line"/>
      <point x="906" y="775" type="line"/>
    </contour>
    <contour>
      <point x="679" y="854" type="line"/>
      <point x="679" y="1173" type="line"/>
      <point x="848" y="1173" type="line" smooth="yes"/>
      <point x="960" y="1173"/>
      <point x="1076" y="1157"/>
      <point x="1076" y="1015" type="curve" smooth="yes"/>
      <point x="1076" y="864"/>
      <point x="969" y="854"/>
      <point x="843" y="854" type="curve" smooth="yes"/>
    </contour>
    <contour>
      <point x="849" y="106" type="curve" smooth="yes"/>
      <point x="480" y="106"/>
      <point x="189" y="371"/>
      <point x="189" y="773" type="curve" smooth="yes"/>
      <point x="189" y="1166"/>
      <point x="481" y="1444"/>
      <point x="850" y="1444" type="curve" smooth="yes"/>
      <point x="1220" y="1444"/>
      <point x="1513" y="1136"/>
      <point x="1513" y="773" type="curve" smooth="yes"/>
      <point x="1513" y="411"/>
      <point x="1219" y="106"/>
    </contour>
    <contour>
      <point x="850" y="53" type="curve" smooth="yes"/>
      <point x="1251" y="53"/>
      <point x="1579" y="375"/>
      <point x="1579" y="774" type="curve" smooth="yes"/>
      <point x="1579" y="1175"/>
      <point x="1251" y="1497"/>
      <point x="850" y="1497" type="curve" smooth="yes"/>
      <point x="451" y="1497"/>
      <point x="123" y="1205"/>
      <point x="123" y="774" type="curve" smooth="yes"/>
      <point x="123" y="335"/>
      <point x="451" y="53"/>
    </contour>
  </outline>
</glyph>
<glyph name="macron" format="1">
  <advance width="724"/>
  <unicode hex="00AF"/>
  <outline>
    <contour>
      <point x="372" y="1023" type="move" name="_top"/>
    </contour>
    <contour>
      <point x="138" y="1227" type="line"/>
      <point x="592" y="1227" type="line"/>
      <point x="592" y="1347" type="line"/>
      <point x="138" y="1347" type="line"/>
    </contour>
  </outline>
</glyph>
<glyph name="degree" format="1">
  <advance width="483"/>
  <unicode hex="00B0"/>
  <outline>
    <contour>
      <point x="240" y="1124" type="curve" smooth="yes"/>
      <point x="154" y="1124"/>
      <point x="108" y="1193"/>
      <point x="108" y="1267" type="curve" smooth="yes"/>
      <point x="108" y="1341"/>
      <point x="154" y="1410"/>
      <point x="240" y="1410" type="curve" smooth="yes"/>
      <point x="326" y="1410"/>
      <point x="372" y="1341"/>
      <point x="372" y="1267" type="curve" smooth="yes"/>
      <point x="372" y="1193"/>
      <point x="326" y="1124"/>
    </contour>
    <contour>
      <point x="240" y="1024" type="curve" smooth="yes"/>
      <point x="396" y="1024"/>
      <point x="489" y="1139"/>
      <point x="489" y="1267" type="curve" smooth="yes"/>
      <point x="489" y="1395"/>
      <point x="396" y="1510"/>
      <point x="240" y="1510" type="curve" smooth="yes"/>
      <point x="84" y="1510"/>
      <point x="-9" y="1395"/>
      <point x="-9" y="1267" type="curve" smooth="yes"/>
      <point x="-9" y="1139"/>
      <point x="84" y="1024"/>
    </contour>
  </outline>
</glyph>
<glyph name="plusminus" format="1">
  <advance width="860"/>
  <unicode hex="00B1"/>
  <outline>
    <contour>
      <point x="369" y="423" type="line"/>
      <point x="491" y="423" type="line"/>
      <point x="491" y="664" type="line"/>
      <point x="730" y="664" type="line"/>
      <point x="730" y="784" type="line"/>
      <point x="491" y="784" type="line"/>
      <point x="491" y="1023" type="line"/>
      <point x="369" y="1023" type="line"/>
      <point x="369" y="784" type="line"/>
      <point x="129" y="784" type="line"/>
      <point x="129" y="664" type="line"/>
      <point x="369" y="664" type="line"/>
    </contour>
    <contour>
      <point x="128" y="233" type="line"/>
      <point x="730" y="233" type="line"/>
      <point x="730" y="335" type="line"/>
      <point x="128" y="335" type="line"/>
    </contour>
  </outline>
</glyph>
<glyph name="acute" format="1">
  <advance width="496"/>
  <unicode hex="00B4"/>
  <outline>
    <contour>
      <point x="47" y="1151" type="line"/>
      <point x="160" y="1150" type="line"/>
      <point x="484" y="1470" type="line"/>
      <point x="251" y="1470" type="line"/>
    </contour>
    <contour>
      <point x="148" y="1023" type="move" name="_top"/>
    </contour>
  </outline>
</glyph>
<glyph name="mu" format="1">
  <advance width="1109"/>
  <unicode hex="00B5"/>
  <outline>
    <contour>
      <point x="120" y="-272" type="line"/>
      <point x="290" y="-272" type="line"/>
      <point x="290" y="497" type="line"/>
      <point x="120" y="497" type="line"/>
    </contour>
    <component base="u"/>
  </outline>
</glyph>
<glyph name="periodcentered" format="1">
  <advance width="434"/>
  <unicode hex="00B7"/>
  <outline>
    <contour>
      <point x="516" y="536" type="line"/>
      <point x="718" y="536" type="line"/>
      <point x="718" y="761" type="line"/>
      <point x="516" y="761" type="line"/>
    </contour>
    <contour>
      <point x="218" y="654" type="move" name="_mid"/>
    </contour>
  </outline>
</glyph>
<glyph name="onesuperior" format="1">
  <advance width="697"/>
  <unicode hex="00B9"/>
  <outline>
    <contour>
      <point x="330" y="769" type="line"/>
      <point x="465" y="769" type="line"/>
      <point x="465" y="1464" type="line"/>
      <point x="342" y="1464" type="line"/>
      <point x="190" y="1394" type="line"/>
      <point x="215" y="1287" type="line"/>
      <point x="330" y="1345" type="line"/>
    </contour>
  </outline>
</glyph>
<glyph name="guillemotright" format="1">
  <advance width="946"/>
  <unicode hex="00BB"/>
  <outline>
    <contour>
      <point x="29" y="242" type="line"/>
      <point x="478" y="531" type="line"/>
      <point x="478" y="768" type="line"/>
      <point x="29" y="1057" type="line"/>
      <point x="29" y="887" type="line"/>
      <point x="360" y="650" type="line"/>
      <point x="29" y="411" type="line"/>
    </contour>
    <contour>
      <point x="488" y="242" type="line"/>
      <point x="937" y="531" type="line"/>
      <point x="937" y="768" type="line"/>
      <point x="488" y="1057" type="line"/>
      <point x="488" y="887" type="line"/>
      <point x="819" y="650" type="line"/>
      <point x="488" y="411" type="line"/>
    </contour>
  </outline>
</glyph>
<glyph name="onehalf" format="1">
  <advance width="1473"/>
  <unicode hex="00BD"/>
  <outline>
    <contour>
      <point x="1180" y="601" type="curve" smooth="yes"/>
      <point x="1248.57" y="601"/>
      <point x="1299.43" y="555.872"/>
      <point x="1299.43" y="475.103" type="curve" smooth="yes"/>
      <point x="1299.43" y="365.07"/>
      <point x="1166.82" y="287.798"/>
      <point x="947" y="98" type="curve"/>
      <point x="947" y="0" type="line"/>
      <point x="1429" y="0" type="line"/>
      <point x="1429" y="95" type="line"/>
      <point x="1116" y="95" type="line"/>
      <point x="1299.83" y="255.264"/>
      <point x="1429.45" y="331.987"/>
      <point x="1429.45" y="475.98" type="curve" smooth="yes"/>
      <point x="1429.45" y="636.706"/>
      <point x="1307.39" y="712"/>
      <point x="1184" y="712" type="curve" smooth="yes"/>
      <point x="1078" y="712"/>
      <point x="969" y="658"/>
      <point x="926" y="537" type="curve"/>
      <point x="1034" y="483" type="line"/>
      <point x="1052" y="557"/>
      <point x="1109" y="601"/>
    </contour>
    <contour>
      <point x="255" y="769" type="line"/>
      <point x="390" y="769" type="line"/>
      <point x="390" y="1464" type="line"/>
      <point x="267" y="1464" type="line"/>
      <point x="115" y="1394" type="line"/>
      <point x="140" y="1287" type="line"/>
      <point x="255" y="1345" type="line"/>
    </contour>
    <contour>
      <point x="175" y="-14" type="line"/>
      <point x="1410" y="1415" type="line"/>
      <point x="1318" y="1494" type="line"/>
      <point x="82" y="65" type="line"/>
    </contour>
  </outline>
</glyph>
<glyph name="threequarters" format="1">
  <advance width="1505"/>
  <unicode hex="00BE"/>
  <outline>
    <contour>
      <point x="123" y="910" type="line"/>
      <point x="152.126" y="790.483"/>
      <point x="270.904" y="743.992"/>
      <point x="366.612" y="743.992" type="curve" smooth="yes"/>
      <point x="527.921" y="743.992"/>
      <point x="616.049" y="836.714"/>
      <point x="616.049" y="956.093" type="curve" smooth="yes"/>
      <point x="616.049" y="1009.35"/>
      <point x="599.622" y="1105.27"/>
      <point x="466" y="1144" type="curve"/>
      <point x="554" y="1172"/>
      <point x="586" y="1240"/>
      <point x="586" y="1306" type="curve" smooth="yes"/>
      <point x="586" y="1402"/>
      <point x="495" y="1481"/>
      <point x="353" y="1481" type="curve" smooth="yes"/>
      <point x="271" y="1481"/>
      <point x="167" y="1440"/>
      <point x="137" y="1358" type="curve"/>
      <point x="222" y="1297" type="line"/>
      <point x="248" y="1349"/>
      <point x="300" y="1379"/>
      <point x="354" y="1379" type="curve" smooth="yes"/>
      <point x="421.168" y="1379"/>
      <point x="463.023" y="1346.52"/>
      <point x="463.023" y="1294.15" type="curve" smooth="yes"/>
      <point x="463.023" y="1233.68"/>
      <point x="431.12" y="1191.97"/>
      <point x="311" y="1190" type="curve"/>
      <point x="311" y="1086" type="line"/>
      <point x="447" y="1086"/>
      <point x="488" y="1034"/>
      <point x="488" y="955" type="curve" smooth="yes"/>
      <point x="488" y="900"/>
      <point x="441" y="850"/>
      <point x="371" y="850" type="curve" smooth="yes"/>
      <point x="307" y="850"/>
      <point x="246" y="873"/>
      <point x="218" y="954" type="curve"/>
    </contour>
    <contour>
      <point x="1229" y="0" type="line"/>
      <point x="1365" y="0" type="line"/>
      <point x="1365" y="140" type="line"/>
      <point x="1467" y="140" type="line"/>
      <point x="1467" y="238" type="line"/>
      <point x="1365" y="238" type="line"/>
      <point x="1365" y="693" type="line"/>
      <point x="1190" y="693" type="line"/>
      <point x="882" y="220" type="line"/>
      <point x="882" y="140" type="line"/>
      <point x="1229" y="140" type="line"/>
    </contour>
    <contour>
      <point x="278" y="-14" type="line"/>
      <point x="1513" y="1415" type="line"/>
      <point x="1421" y="1494" type="line"/>
      <point x="185" y="65" type="line"/>
    </contour>
    <contour>
      <point x="1019" y="238" type="line"/>
      <point x="1229" y="568" type="line"/>
      <point x="1229" y="238" type="line"/>
    </contour>
  </outline>
</glyph>
<glyph name="Eth" format="1">
  <advance width="1444"/>
  <unicode hex="00D0"/>
  <outline>
    <contour>
      <point x="0" y="694" type="line"/>
      <point x="558" y="694" type="line"/>
      <point x="558" y="796" type="line"/>
      <point x="0" y="796" type="line"/>
    </contour>
    <component base="D"/>
  </outline>
</glyph>
<glyph name="multiply" format="1">
  <advance width="734"/>
  <unicode hex="00D7"/>
  <outline>
    <contour>
      <point x="201" y="188" type="line"/>
      <point x="365" y="352" type="line"/>
      <point x="529" y="188" type="line"/>
      <point x="631" y="290" type="line"/>
      <point x="467" y="454" type="line"/>
      <point x="631" y="618" type="line"/>
      <point x="529" y="720" type="line"/>
      <point x="365" y="556" type="line"/>
      <point x="201" y="720" type="line"/>
      <point x="99" y="618" type="line"/>
      <point x="263" y="454" type="line"/>
      <point x="99" y="290" type="line"/>
    </contour>
  </outline>
</glyph>
<glyph name="Oslash" format="1">
  <advance width="1497"/>
  <unicode hex="00D8"/>
  <outline>
    <contour>
      <point x="337" y="-208" type="line"/>
      <point x="1227" y="1610" type="line"/>
      <point x="1126" y="1663" type="line"/>
      <point x="235" y="-155" type="line"/>
    </contour>
    <component base="O"/>
    <contour>
      <point x="748.5" y="1464" type="move" name="top"/>
    </contour>
  </outline>
</glyph>
<glyph name="germandbls" format="1">
  <advance width="1199"/>
  <unicode hex="00DF"/>
  <outline>
    <contour>
      <point x="948.009" y="1200.68" type="curve" smooth="yes"/>
      <point x="948.009" y="1365.03"/>
      <point x="828.968" y="1492.02"/>
      <point x="562.485" y="1492.02" type="curve" smooth="yes"/>
      <point x="338.386" y="1492.02"/>
      <point x="119" y="1371.19"/>
      <point x="119" y="1151" type="curve" smooth="yes"/>
      <point x="119" y="0" type="line"/>
      <point x="295" y="0" type="line"/>
      <point x="295" y="1138" type="line" smooth="yes"/>
      <point x="295" y="1285"/>
      <point x="420" y="1368"/>
      <point x="565" y="1368" type="curve" smooth="yes"/>
      <point x="716" y="1367"/>
      <point x="785" y="1306"/>
      <point x="785" y="1209" type="curve" smooth="yes"/>
      <point x="785" y="995.154"/>
      <point x="436.987" y="1017.66"/>
      <point x="436.987" y="813.956" type="curve" smooth="yes"/>
      <point x="436.987" y="580.491"/>
      <point x="946.07" y="563.556"/>
      <point x="946.07" y="338.593" type="curve" smooth="yes"/>
      <point x="946.07" y="202.197"/>
      <point x="831.635" y="141"/>
      <point x="441" y="141" type="curve"/>
      <point x="441" y="0" type="line"/>
      <point x="481" y="0" type="line" smooth="yes"/>
      <point x="1029.15" y="0"/>
      <point x="1123" y="112.974"/>
      <point x="1123" y="336.923" type="curve" smooth="yes"/>
      <point x="1123" y="653.171"/>
      <point x="610.987" y="700.843"/>
      <point x="610.987" y="821.941" type="curve" smooth="yes"/>
      <point x="610.987" y="886.687"/>
      <point x="948.009" y="938.768"/>
    </contour>
  </outline>
</glyph>
<glyph name="divide" format="1">
  <advance width="1024"/>
  <unicode hex="00F7"/>
  <outline>
    <contour>
      <point x="369" y="171" type="line"/>
      <point x="577" y="171" type="line"/>
      <point x="577" y="389" type="line"/>
      <point x="369" y="389" type="line"/>
    </contour>
    <contour>
      <point x="97" y="541" type="line"/>
      <point x="847" y="541" type="line"/>
      <point x="847" y="657" type="line"/>
      <point x="97" y="657" type="line"/>
    </contour>
    <contour>
      <point x="369" y="804" type="line"/>
      <point x="577" y="804" type="line"/>
      <point x="577" y="1024" type="line"/>
      <point x="369" y="1024" type="line"/>
    </contour>
  </outline>
</glyph>
<glyph name="oslash" format="1">
  <advance width="1104"/>
  <unicode hex="00F8"/>
  <outline>
    <component base="o"/>
    <contour>
      <point x="269" y="-198" type="line"/>
      <point x="920" y="1177" type="line"/>
      <point x="834" y="1222" type="line"/>
      <point x="181" y="-153" type="line"/>
    </contour>
  </outline>
</glyph>
<glyph name="thorn" format="1">
  <advance width="1058"/>
  <unicode hex="00FE"/>
  <outline>
    <contour>
      <point x="111" y="-394" type="line"/>
      <point x="281" y="-376" type="line"/>
      <point x="281" y="142" type="line"/>
      <point x="337" y="45"/>
      <point x="429" y="-24"/>
      <point x="580" y="-24" type="curve" smooth="yes"/>
      <point x="831" y="-24"/>
      <point x="986" y="217"/>
      <point x="986" y="520" type="curve" smooth="yes"/>
      <point x="986" y="824"/>
      <point x="855" y="1045"/>
      <point x="576" y="1045" type="curve" smooth="yes"/>
      <point x="434" y="1045"/>
      <point x="335" y="979"/>
      <point x="280" y="873" type="curve"/>
      <point x="280" y="1464" type="line"/>
      <point x="111" y="1464" type="line"/>
    </contour>
    <contour>
      <point x="555.093" y="923.006" type="curve" smooth="yes"/>
      <point x="700.894" y="923.006"/>
      <point x="811" y="798.592"/>
      <point x="811" y="521" type="curve" smooth="yes"/>
      <point x="811" y="263"/>
      <point x="729" y="98"/>
      <point x="564" y="98" type="curve" smooth="yes"/>
      <point x="372.943" y="98"/>
      <point x="280.994" y="269.832"/>
      <point x="280.994" y="522.358" type="curve" smooth="yes"/>
      <point x="280.994" y="807.671"/>
      <point x="407.487" y="923.006"/>
    </contour>
  </outline>
</glyph>
<glyph name="hbar" format="1">
  <advance width="1117"/>
  <unicode hex="0127"/>
  <outline>
    <contour>
      <point x="-5" y="1191" type="line"/>
      <point x="527" y="1191" type="line"/>
      <point x="527" y="1294" type="line"/>
      <point x="-5" y="1294" type="line"/>
    </contour>
    <component base="h"/>
  </outline>
</glyph>
<glyph name="kgreenlandic" format="1">
  <advance width="1010"/>
  <unicode hex="0138"/>
  <outline>
    <contour>
      <point x="845" y="0" type="line"/>
      <point x="1037" y="0" type="line"/>
      <point x="607" y="597" type="line"/>
      <point x="980" y="1023" type="line"/>
      <point x="785" y="1023" type="line"/>
      <point x="285.545" y="465.849" type="line"/>
      <point x="285" y="1023" type="line"/>
      <point x="116" y="1023" type="line"/>
      <point x="116" y="0" type="line"/>
      <point x="286" y="0" type="line"/>
      <point x="285.716" y="290.528" type="line"/>
      <point x="492" y="504" type="line"/>
    </contour>
  </outline>
</glyph>
<glyph name="Lslash" format="1">
  <advance width="1055"/>
  <unicode hex="0141"/>
  <outline>
    <contour>
      <point x="-25" y="618" type="line"/>
      <point x="610" y="878" type="line"/>
      <point x="610" y="1024" type="line"/>
      <point x="-25" y="764" type="line"/>
    </contour>
    <component base="L"/>
  </outline>
</glyph>
<glyph name="Eng" format="1">
  <advance width="1498"/>
  <unicode hex="014A"/>
  <outline>
    <contour>
      <point x="902" y="-519" type="line"/>
      <point x="1185" y="-517"/>
      <point x="1352" y="-371"/>
      <point x="1352" y="-57" type="curve" smooth="yes"/>
      <point x="1352" y="1464" type="line"/>
      <point x="1199" y="1464" type="line"/>
      <point x="1199" y="267" type="line"/>
      <point x="340" y="1464" type="line"/>
      <point x="146" y="1464" type="line"/>
      <point x="146" y="0" type="line"/>
      <point x="304" y="0" type="line"/>
      <point x="304" y="1256" type="line"/>
      <point x="1197" y="0" type="line"/>
      <point x="1199" y="0" type="line"/>
      <point x="1199" y="-58" type="line" smooth="yes"/>
      <point x="1199" y="-277"/>
      <point x="1106" y="-390"/>
      <point x="903" y="-391" type="curve"/>
    </contour>
  </outline>
</glyph>
<glyph name="eng" format="1">
  <advance width="1107"/>
  <unicode hex="014B"/>
  <outline>
    <contour>
      <point x="537" y="-410" type="line"/>
      <point x="820" y="-408"/>
      <point x="987" y="-262"/>
      <point x="987" y="-23" type="curve" smooth="yes"/>
      <point x="987" y="588" type="line" smooth="yes"/>
      <point x="987" y="793"/>
      <point x="958" y="1045"/>
      <point x="637" y="1045" type="curve" smooth="yes"/>
      <point x="478" y="1045"/>
      <point x="365" y="984"/>
      <point x="296" y="868" type="curve"/>
      <point x="296" y="1023" type="line"/>
      <point x="126" y="1023" type="line"/>
      <point x="126" y="0" type="line"/>
      <point x="296" y="0" type="line"/>
      <point x="296" y="535" type="line"/>
      <point x="303" y="742"/>
      <point x="380" y="925"/>
      <point x="607" y="925" type="curve" smooth="yes"/>
      <point x="772" y="925"/>
      <point x="817" y="808"/>
      <point x="817" y="602" type="curve" smooth="yes"/>
      <point x="817" y="-23" type="line" smooth="yes"/>
      <point x="817" y="-168"/>
      <point x="741" y="-281"/>
      <point x="538" y="-282" type="curve"/>
    </contour>
  </outline>
</glyph>
<glyph name="OE" format="1">
  <advance width="2171"/>
  <unicode hex="0152"/>
  <outline>
    <contour>
      <point x="712" y="-25" type="curve" smooth="yes"/>
      <point x="965" y="-25"/>
      <point x="1107" y="71"/>
      <point x="1164" y="224" type="curve"/>
      <point x="1164" y="0" type="line"/>
      <point x="2121" y="0" type="line"/>
      <point x="2121" y="134" type="line"/>
      <point x="1340" y="134" type="line"/>
      <point x="1340" y="711" type="line"/>
      <point x="2004" y="711" type="line"/>
      <point x="2004" y="848" type="line"/>
      <point x="1340" y="848" type="line"/>
      <point x="1340" y="1330" type="line"/>
      <point x="2110" y="1330" type="line"/>
      <point x="2110" y="1464" type="line"/>
      <point x="1163" y="1464" type="line"/>
      <point x="1164" y="1256" type="line"/>
      <point x="1093" y="1406"/>
      <point x="952" y="1491"/>
      <point x="715" y="1491" type="curve" smooth="yes"/>
      <point x="336" y="1491"/>
      <point x="107" y="1282"/>
      <point x="107" y="740" type="curve" smooth="yes"/>
      <point x="107" y="186"/>
      <point x="329" y="-25"/>
    </contour>
    <contour>
      <point x="724.893" y="116.927" type="curve" smooth="yes"/>
      <point x="393.661" y="116.927"/>
      <point x="291" y="310.107"/>
      <point x="291" y="741" type="curve" smooth="yes"/>
      <point x="291" y="1139.54"/>
      <point x="391.21" y="1350.17"/>
      <point x="733.417" y="1350.17" type="curve" smooth="yes"/>
      <point x="1064.86" y="1350.17"/>
      <point x="1164" y="1195.76"/>
      <point x="1164" y="716" type="curve" smooth="yes"/>
      <point x="1164" y="279.335"/>
      <point x="1046.88" y="116.927"/>
    </contour>
  </outline>
</glyph>
<glyph name="Tbar" format="1">
  <advance width="1119"/>
  <unicode hex="0166"/>
  <outline>
    <contour>
      <point x="243" y="723" type="line"/>
      <point x="884" y="723" type="line"/>
      <point x="884" y="843" type="line"/>
      <point x="243" y="843" type="line"/>
    </contour>
    <component base="T"/>
  </outline>
</glyph>
<glyph name="tbar" format="1">
  <advance width="671"/>
  <unicode hex="0167"/>
  <outline>
    <contour>
      <point x="79" y="534" type="line"/>
      <point x="533" y="534" type="line"/>
      <point x="533" y="654" type="line"/>
      <point x="79" y="654" type="line"/>
    </contour>
    <component base="t"/>
  </outline>
</glyph>
<glyph name="uni0237" format="1">
  <advance width="494"/>
  <unicode hex="0237"/>
  <outline>
    <contour>
      <point x="138" y="-347" type="curve" smooth="yes"/>
      <point x="322" y="-347"/>
      <point x="376" y="-252"/>
      <point x="376" y="-24" type="curve" smooth="yes"/>
      <point x="376" y="1023" type="line"/>
      <point x="206" y="1023" type="line"/>
      <point x="206" y="-91" type="line" smooth="yes"/>
      <point x="206" y="-180"/>
      <point x="168" y="-207"/>
      <point x="111" y="-207" type="curve" smooth="yes"/>
      <point x="65" y="-207"/>
      <point x="26" y="-191"/>
      <point x="-7" y="-177" type="curve"/>
      <point x="-41" y="-304" type="line"/>
      <point x="3" y="-328"/>
      <point x="67" y="-347"/>
    </contour>
    <contour>
      <point x="302" y="1023" type="move" name="top"/>
    </contour>
  </outline>
</glyph>
<glyph name="caron" format="1">
  <advance width="838"/>
  <unicode hex="02C7"/>
  <outline>
    <contour>
      <point x="419" y="1023" type="move" name="_top"/>
    </contour>
    <contour>
      <point x="321" y="1154" type="line"/>
      <point x="528" y="1154" type="line"/>
      <point x="701" y="1474" type="line"/>
      <point x="586" y="1474" type="line"/>
      <point x="424" y="1235" type="line"/>
      <point x="263" y="1474" type="line"/>
      <point x="148" y="1474" type="line"/>
    </contour>
  </outline>
</glyph>
<glyph name="hungarumlaut" format="1">
  <advance width="745"/>
  <unicode hex="02DD"/>
  <outline>
    <contour>
      <point x="273" y="1023" type="move" name="_top"/>
    </contour>
    <contour>
      <point x="71" y="1133" type="line"/>
      <point x="150" y="1133" type="line"/>
      <point x="385" y="1461" type="line"/>
      <point x="160" y="1461" type="line"/>
    </contour>
    <contour>
      <point x="363" y="1133" type="line"/>
      <point x="450" y="1133" type="line"/>
      <point x="713" y="1461" type="line"/>
      <point x="481" y="1461" type="line"/>
    </contour>
  </outline>
</glyph>
<glyph name="uni030F" format="1">
  <advance width="745"/>
  <unicode hex="030F"/>
  <outline>
    <contour>
      <point x="329" y="1153" type="line"/>
      <point x="416" y="1153" type="line"/>
      <point x="298" y="1481" type="line"/>
      <point x="66" y="1481" type="line"/>
    </contour>
    <contour>
      <point x="629" y="1153" type="line"/>
      <point x="708" y="1153" type="line"/>
      <point x="619" y="1481" type="line"/>
      <point x="394" y="1481" type="line"/>
    </contour>
    <contour>
      <point x="535" y="1023" type="move" name="_top"/>
    </contour>
  </outline>
</glyph>
<glyph name="uni0311" format="1">
  <advance width="805"/>
  <unicode hex="0311"/>
  <outline>
    <contour>
      <point x="121" y="1174" type="curve"/>
      <point x="260" y="1174" type="line"/>
      <point x="260" y="1265"/>
      <point x="304" y="1314"/>
      <point x="402" y="1314" type="curve" smooth="yes"/>
      <point x="499" y="1314"/>
      <point x="544" y="1265"/>
      <point x="544" y="1174" type="curve"/>
      <point x="683" y="1174" type="line"/>
      <point x="679" y="1362"/>
      <point x="545" y="1437"/>
      <point x="402" y="1437" type="curve" smooth="yes"/>
      <point x="259" y="1437"/>
      <point x="125" y="1362"/>
    </contour>
    <contour>
      <point x="406" y="1023" type="move" name="_top"/>
    </contour>
  </outline>
</glyph>
<glyph name="uni0312" format="1">
  <advance width="600"/>
  <unicode hex="0312"/>
  <outline>
    <contour>
      <point x="202" y="1199" type="line"/>
      <point x="442" y="1199" type="line"/>
      <point x="442" y="1409" type="line"/>
      <point x="338" y="1422" type="line"/>
      <point x="340" y="1526"/>
      <point x="395" y="1599"/>
      <point x="423" y="1623" type="curve"/>
      <point x="360" y="1697" type="line"/>
      <point x="218" y="1610"/>
      <point x="205" y="1482"/>
      <point x="202" y="1308" type="curve"/>
    </contour>
    <contour>
      <point x="314" y="1023" type="move" name="_top"/>
    </contour>
  </outline>
</glyph>
<glyph name="uni0326" format="1">
  <advance width="409"/>
  <unicode hex="0326"/>
  <outline>
    <contour>
      <point x="186" y="-576" type="line"/>
      <point x="269" y="-544"/>
      <point x="321" y="-429"/>
      <point x="321" y="-278" type="curve" smooth="yes"/>
      <point x="321" y="-124" type="line"/>
      <point x="93" y="-124" type="line"/>
      <point x="93" y="-321" type="line"/>
      <point x="207" y="-326" type="line"/>
      <point x="206" y="-388"/>
      <point x="178" y="-488"/>
      <point x="130" y="-526" type="curve"/>
    </contour>
    <contour>
      <point x="204.5" y="0" type="move" name="_bot"/>
    </contour>
  </outline>
</glyph>
<glyph name="emdash" format="1">
  <advance width="2048"/>
  <unicode hex="2014"/>
  <outline>
    <contour>
      <point x="135" y="318" type="line"/>
      <point x="1913" y="318" type="line"/>
      <point x="1913" y="420" type="line"/>
      <point x="135" y="420" type="line"/>
    </contour>
  </outline>
</glyph>
<glyph name="quoteleft" format="1">
  <advance width="330"/>
  <unicode hex="2018"/>
  <outline>
    <contour>
      <point x="26" y="992" type="line"/>
      <point x="238" y="992" type="line"/>
      <point x="238" y="1187" type="line"/>
      <point x="144" y="1200" type="line"/>
      <point x="144" y="1298"/>
      <point x="165" y="1331"/>
      <point x="222" y="1427" type="curve"/>
      <point x="221" y="1427"/>
      <point x="145" y="1468"/>
      <point x="145" y="1469" type="curve"/>
      <point x="28" y="1374"/>
      <point x="26" y="1244"/>
      <point x="26" y="1103" type="curve" smooth="yes"/>
    </contour>
  </outline>
</glyph>
<glyph name="quoteright" format="1">
  <advance width="330"/>
  <unicode hex="2019"/>
  <outline>
    <contour>
      <point x="160" y="991" type="line"/>
      <point x="326" y="1104"/>
      <point x="302" y="1284"/>
      <point x="306" y="1464" type="curve"/>
      <point x="94" y="1464" type="line"/>
      <point x="94" y="1292" type="line" smooth="yes"/>
      <point x="94" y="1291"/>
      <point x="184" y="1273"/>
      <point x="184" y="1274" type="curve"/>
      <point x="181" y="1154"/>
      <point x="130" y="1083"/>
      <point x="105" y="1060" type="curve"/>
    </contour>
  </outline>
</glyph>
<glyph name="quotesinglbase" format="1">
  <advance width="436"/>
  <unicode hex="201A"/>
  <outline>
    <contour>
      <point x="177" y="-382" type="line"/>
      <point x="337" y="-269"/>
      <point x="334" y="-87"/>
      <point x="338" y="93" type="curve"/>
      <point x="122" y="93" type="line"/>
      <point x="122" y="-81" type="line" smooth="yes"/>
      <point x="122" y="-82"/>
      <point x="195" y="-99"/>
      <point x="195" y="-99" type="curve"/>
      <point x="192" y="-219"/>
      <point x="141" y="-296"/>
      <point x="116" y="-319" type="curve"/>
    </contour>
  </outline>
</glyph>
<glyph name="quotedblleft" format="1">
  <advance width="630"/>
  <unicode hex="201C"/>
  <outline>
    <contour>
      <point x="24" y="995" type="line"/>
      <point x="236" y="995" type="line"/>
      <point x="236" y="1183" type="line"/>
      <point x="139" y="1197" type="line"/>
      <point x="142" y="1319"/>
      <point x="195" y="1387"/>
      <point x="220" y="1410" type="curve"/>
      <point x="165" y="1473" type="line"/>
      <point x="31" y="1379"/>
      <point x="24" y="1240"/>
      <point x="24" y="1084" type="curve" smooth="yes"/>
    </contour>
    <contour>
      <point x="336" y="995" type="line"/>
      <point x="548" y="995" type="line"/>
      <point x="548" y="1183" type="line"/>
      <point x="445" y="1196" type="line"/>
      <point x="448" y="1319"/>
      <point x="501" y="1387"/>
      <point x="526" y="1410" type="curve"/>
      <point x="471" y="1473" type="line"/>
      <point x="337" y="1378"/>
      <point x="341" y="1242"/>
      <point x="336" y="1084" type="curve"/>
    </contour>
  </outline>
</glyph>
<glyph name="quotedblbase" format="1">
  <advance width="744"/>
  <unicode hex="201E"/>
  <outline>
    <contour>
      <point x="159" y="-382" type="line"/>
      <point x="319" y="-269"/>
      <point x="316" y="-87"/>
      <point x="320" y="93" type="curve"/>
      <point x="102" y="93" type="line"/>
      <point x="102" y="-81" type="line"/>
      <point x="101" y="-82"/>
      <point x="177" y="-99"/>
      <point x="177" y="-99" type="curve"/>
      <point x="174" y="-219"/>
      <point x="123" y="-296"/>
      <point x="98" y="-319" type="curve"/>
    </contour>
    <contour>
      <point x="491" y="-382" type="line"/>
      <point x="651" y="-269"/>
      <point x="648" y="-87"/>
      <point x="652" y="93" type="curve"/>
      <point x="434" y="93" type="line"/>
      <point x="434" y="-81" type="line" smooth="yes"/>
      <point x="434" y="-82"/>
      <point x="509" y="-99"/>
      <point x="509" y="-99" type="curve"/>
      <point x="506" y="-219"/>
      <point x="455" y="-296"/>
      <point x="430" y="-319" type="curve"/>
    </contour>
  </outline>
</glyph>
<glyph name="dagger" format="1">
  <advance width="1118"/>
  <unicode hex="2020"/>
  <outline>
    <contour>
      <point x="477" y="0" type="line"/>
      <point x="655" y="0" type="line"/>
      <point x="655" y="950" type="line"/>
      <point x="988" y="950" type="line"/>
      <point x="988" y="1086" type="line"/>
      <point x="655" y="1086" type="line"/>
      <point x="655" y="1464" type="line"/>
      <point x="477" y="1464" type="line"/>
      <point x="477" y="1086" type="line"/>
      <point x="129" y="1086" type="line"/>
      <point x="129" y="950" type="line"/>
      <point x="477" y="950" type="line"/>
    </contour>
  </outline>
</glyph>
<glyph name="daggerdbl" format="1">
  <advance width="1117"/>
  <unicode hex="2021"/>
  <outline>
    <contour>
      <point x="477" y="0" type="line"/>
      <point x="655" y="0" type="line"/>
      <point x="655" y="476" type="line"/>
      <point x="987" y="476" type="line"/>
      <point x="987" y="611" type="line"/>
      <point x="655" y="611" type="line"/>
      <point x="655" y="950" type="line"/>
      <point x="988" y="950" type="line"/>
      <point x="988" y="1086" type="line"/>
      <point x="655" y="1086" type="line"/>
      <point x="655" y="1464" type="line"/>
      <point x="477" y="1464" type="line"/>
      <point x="477" y="1086" type="line"/>
      <point x="129" y="1086" type="line"/>
      <point x="129" y="950" type="line"/>
      <point x="477" y="950" type="line"/>
      <point x="477" y="611" type="line"/>
      <point x="130" y="611" type="line"/>
      <point x="130" y="476" type="line"/>
      <point x="477" y="476" type="line"/>
    </contour>
  </outline>
</glyph>
<glyph name="perthousand" format="1">
  <advance width="2420"/>
  <unicode hex="2030"/>
  <outline>
    <contour>
      <point x="2064" y="102" type="curve" smooth="yes"/>
      <point x="1945" y="102"/>
      <point x="1885" y="210"/>
      <point x="1885" y="339" type="curve" smooth="yes"/>
      <point x="1885" y="465"/>
      <point x="1947" y="575"/>
      <point x="2064" y="575" type="curve" smooth="yes"/>
      <point x="2183" y="575"/>
      <point x="2244" y="468"/>
      <point x="2244" y="338" type="curve" smooth="yes"/>
      <point x="2244" y="210"/>
      <point x="2182" y="102"/>
    </contour>
    <contour>
      <point x="2065" y="-10" type="curve" smooth="yes"/>
      <point x="2267" y="-10"/>
      <point x="2374" y="164"/>
      <point x="2374" y="338" type="curve" smooth="yes"/>
      <point x="2374" y="510"/>
      <point x="2267" y="685"/>
      <point x="2065" y="685" type="curve" smooth="yes"/>
      <point x="1862" y="685"/>
      <point x="1754" y="510"/>
      <point x="1754" y="337" type="curve" smooth="yes"/>
      <point x="1754" y="164"/>
      <point x="1861" y="-10"/>
    </contour>
    <component base="percent"/>
  </outline>
</glyph>
<glyph name="guilsinglleft" format="1">
  <advance width="528"/>
  <unicode hex="2039"/>
  <outline>
    <contour>
      <point x="460" y="243" type="line"/>
      <point x="460" y="412" type="line"/>
      <point x="166" y="650" type="line"/>
      <point x="460" y="888" type="line"/>
      <point x="460" y="1058" type="line"/>
      <point x="48" y="769" type="line"/>
      <point x="48" y="532" type="line"/>
    </contour>
  </outline>
</glyph>
<glyph name="guilsinglright" format="1">
  <advance width="528"/>
  <unicode hex="203A"/>
  <outline>
    <contour>
      <point x="46" y="243" type="line"/>
      <point x="458" y="532" type="line"/>
      <point x="458" y="769" type="line"/>
      <point x="46" y="1058" type="line"/>
      <point x="46" y="888" type="line"/>
      <point x="340" y="650" type="line"/>
      <point x="46" y="412" type="line"/>
    </contour>
  </outline>
</glyph>
<glyph name="fraction" format="1">
  <advance width="1493"/>
  <unicode hex="2044"/>
  <outline>
    <contour>
      <point x="175" y="-14" type="line"/>
      <point x="1410" y="1415" type="line"/>
      <point x="1318" y="1494" type="line"/>
      <point x="82" y="65" type="line"/>
    </contour>
  </outline>
</glyph>
<glyph name="uni2074" format="1">
  <advance width="919"/>
  <unicode hex="2074"/>
  <outline>
    <contour>
      <point x="498" y="825" type="line"/>
      <point x="632" y="825" type="line"/>
      <point x="632" y="965" type="line"/>
      <point x="736" y="965" type="line"/>
      <point x="736" y="1063" type="line"/>
      <point x="632" y="1063" type="line"/>
      <point x="632" y="1518" type="line"/>
      <point x="459" y="1518" type="line"/>
      <point x="151" y="1045" type="line"/>
      <point x="151" y="965" type="line"/>
      <point x="498" y="965" type="line"/>
    </contour>
    <contour>
      <point x="288" y="1063" type="line"/>
      <point x="498" y="1393" type="line"/>
      <point x="498" y="1063" type="line"/>
    </contour>
  </outline>
</glyph>
<glyph name="Euro" format="1">
  <advance width="1275"/>
  <unicode hex="20AC"/>
  <outline>
    <contour>
      <point x="-47" y="542" type="line"/>
      <point x="687" y="542" type="line"/>
      <point x="687" y="657" type="line"/>
      <point x="-47" y="657" type="line"/>
    </contour>
    <contour>
      <point x="-47" y="791" type="line"/>
      <point x="687" y="791" type="line"/>
      <point x="687" y="906" type="line"/>
      <point x="-47" y="906" type="line"/>
    </contour>
    <component base="C"/>
  </outline>
</glyph>
<glyph name="afii61289" format="1">
  <advance width="891"/>
  <unicode hex="2113"/>
  <outline>
    <contour>
      <point x="458" y="1028" type="line"/>
      <point x="584" y="1137"/>
      <point x="638" y="1246"/>
      <point x="638" y="1321" type="curve" smooth="yes"/>
      <point x="638" y="1373"/>
      <point x="598" y="1407"/>
      <point x="556" y="1407" type="curve" smooth="yes"/>
      <point x="508" y="1407"/>
      <point x="458" y="1363"/>
      <point x="458" y="1252" type="curve" smooth="yes"/>
    </contour>
    <contour>
      <point x="435" y="866" type="line"/>
      <point x="435" y="280" type="line" smooth="yes"/>
      <point x="435" y="140"/>
      <point x="488" y="110"/>
      <point x="562" y="110" type="curve" smooth="yes"/>
      <point x="597" y="110"/>
      <point x="650" y="123"/>
      <point x="698" y="143" type="curve"/>
      <point x="727" y="32" type="line"/>
      <point x="662" y="1"/>
      <point x="592" y="-16"/>
      <point x="527" y="-16" type="curve" smooth="yes"/>
      <point x="364" y="-16"/>
      <point x="265" y="63"/>
      <point x="265" y="298" type="curve" smooth="yes"/>
      <point x="265" y="751" type="line"/>
      <point x="118" y="634" type="line"/>
      <point x="55" y="725" type="line"/>
      <point x="265" y="895" type="line"/>
      <point x="265" y="1235" type="line" smooth="yes"/>
      <point x="265" y="1458"/>
      <point x="385" y="1559"/>
      <point x="545" y="1559" type="curve" smooth="yes"/>
      <point x="689" y="1559"/>
      <point x="789" y="1470"/>
      <point x="789" y="1338" type="curve" smooth="yes"/>
      <point x="789" y="1227"/>
      <point x="721" y="1095"/>
      <point x="571" y="974" type="curve"/>
    </contour>
  </outline>
</glyph>
<glyph name="Omega" format="1">
  <advance width="1758"/>
  <unicode hex="2126"/>
  <outline>
    <contour>
      <point x="114" y="0" type="line"/>
      <point x="770" y="0" type="line"/>
      <point x="770" y="114" type="line"/>
      <point x="475" y="237"/>
      <point x="321" y="510"/>
      <point x="321" y="779" type="curve" smooth="yes"/>
      <point x="321" y="1147"/>
      <point x="602" y="1329"/>
      <point x="879" y="1329" type="curve" smooth="yes"/>
      <point x="1157" y="1329"/>
      <point x="1437" y="1147"/>
      <point x="1437" y="779" type="curve" smooth="yes"/>
      <point x="1437" y="510"/>
      <point x="1283" y="237"/>
      <point x="988" y="114" type="curve"/>
      <point x="988" y="0" type="line"/>
      <point x="1644" y="0" type="line"/>
      <point x="1644" y="115" type="line"/>
      <point x="1189" y="115" type="line"/>
      <point x="1477" y="268"/>
      <point x="1617" y="530"/>
      <point x="1617" y="779" type="curve" smooth="yes"/>
      <point x="1617" y="1255"/>
      <point x="1250" y="1491"/>
      <point x="879" y="1491" type="curve" smooth="yes"/>
      <point x="508" y="1491"/>
      <point x="141" y="1255"/>
      <point x="141" y="779" type="curve" smooth="yes"/>
      <point x="141" y="530"/>
      <point x="281" y="268"/>
      <point x="569" y="115" type="curve"/>
      <point x="114" y="115" type="line"/>
    </contour>
  </outline>
</glyph>
<glyph name="emptyset" format="1">
  <advance width="1702"/>
  <unicode hex="2205"/>
  <outline>
    <contour>
      <point x="265" y="-65" type="line"/>
      <point x="413" y="109" type="line"/>
      <point x="535" y="23"/>
      <point x="686" y="-25"/>
      <point x="850" y="-25" type="curve" smooth="yes"/>
      <point x="1251" y="-25"/>
      <point x="1579" y="297"/>
      <point x="1579" y="696" type="curve" smooth="yes"/>
      <point x="1579" y="902"/>
      <point x="1492" y="1087"/>
      <point x="1354" y="1218" type="curve"/>
      <point x="1506" y="1398" type="line"/>
      <point x="1435" y="1454" type="line"/>
      <point x="1285" y="1276" type="line"/>
      <point x="1164" y="1366"/>
      <point x="1013" y="1419"/>
      <point x="850" y="1419" type="curve" smooth="yes"/>
      <point x="451" y="1419"/>
      <point x="123" y="1127"/>
      <point x="123" y="696" type="curve" smooth="yes"/>
      <point x="123" y="471"/>
      <point x="209" y="287"/>
      <point x="347" y="161" type="curve"/>
      <point x="201" y="-12" type="line"/>
    </contour>
    <contour>
      <point x="409" y="235" type="line"/>
      <point x="296" y="346"/>
      <point x="228" y="505"/>
      <point x="228" y="695" type="curve" smooth="yes"/>
      <point x="228" y="1062"/>
      <point x="496" y="1330"/>
      <point x="850" y="1330" type="curve" smooth="yes"/>
      <point x="992" y="1330"/>
      <point x="1121" y="1282"/>
      <point x="1224" y="1203" type="curve"/>
    </contour>
    <contour>
      <point x="849" y="64" type="curve" smooth="yes"/>
      <point x="706" y="64"/>
      <point x="577" y="106"/>
      <point x="474" y="181" type="curve"/>
      <point x="1291" y="1144" type="line"/>
      <point x="1405" y="1027"/>
      <point x="1474" y="866"/>
      <point x="1474" y="695" type="curve" smooth="yes"/>
      <point x="1474" y="358"/>
      <point x="1204" y="64"/>
    </contour>
  </outline>
</glyph>
<glyph name="integral" format="1">
  <advance width="783"/>
  <unicode hex="222B"/>
  <outline>
    <contour>
      <point x="183" y="-242" type="curve" smooth="yes"/>
      <point x="360" y="-242"/>
      <point x="445" y="-153"/>
      <point x="469" y="93" type="curve" smooth="yes"/>
      <point x="571" y="1145" type="line" smooth="yes"/>
      <point x="586" y="1296"/>
      <point x="603" y="1344"/>
      <point x="693" y="1344" type="curve" smooth="yes"/>
      <point x="731" y="1344"/>
      <point x="767" y="1332"/>
      <point x="797" y="1316" type="curve"/>
      <point x="851" y="1426" type="line"/>
      <point x="818" y="1449"/>
      <point x="751" y="1474"/>
      <point x="687" y="1474" type="curve" smooth="yes"/>
      <point x="510" y="1474"/>
      <point x="425" y="1385"/>
      <point x="401" y="1139" type="curve" smooth="yes"/>
      <point x="299" y="87" type="line" smooth="yes"/>
      <point x="284" y="-64"/>
      <point x="267" y="-113"/>
      <point x="177" y="-113" type="curve" smooth="yes"/>
      <point x="139" y="-113"/>
      <point x="103" y="-100"/>
      <point x="73" y="-84" type="curve"/>
      <point x="19" y="-195" type="line"/>
      <point x="52" y="-217"/>
      <point x="119" y="-242"/>
    </contour>
  </outline>
</glyph>
<glyph name="approxequal" format="1">
  <advance width="1005"/>
  <unicode hex="2248"/>
  <outline>
    <contour>
      <point x="793" y="553" type="curve" smooth="yes"/>
      <point x="684.228" y="553"/>
      <point x="480.935" y="665.265"/>
      <point x="251.831" y="665.265" type="curve" smooth="yes"/>
      <point x="166.542" y="665.265"/>
      <point x="96.1681" y="636.633"/>
      <point x="82" y="426" type="curve"/>
      <point x="200" y="426" type="line"/>
      <point x="199" y="505"/>
      <point x="233" y="531"/>
      <point x="292" y="531" type="curve" smooth="yes"/>
      <point x="407" y="531"/>
      <point x="616" y="429"/>
      <point x="837" y="419" type="curve" smooth="yes"/>
      <point x="841.295" y="418.799"/>
      <point x="845.496" y="418.697"/>
      <point x="849.605" y="418.697" type="curve" smooth="yes"/>
      <point x="947.869" y="418.697"/>
      <point x="993.361" y="477.265"/>
      <point x="1002" y="651" type="curve"/>
      <point x="883" y="651" type="line"/>
      <point x="878" y="578"/>
      <point x="846" y="553"/>
    </contour>
    <contour>
      <point x="744" y="860" type="curve" smooth="yes"/>
      <point x="635.229" y="860"/>
      <point x="431.944" y="972.265"/>
      <point x="202.844" y="972.265" type="curve" smooth="yes"/>
      <point x="117.549" y="972.265"/>
      <point x="47.1688" y="943.588"/>
      <point x="33" y="732" type="curve"/>
      <point x="151" y="732" type="line"/>
      <point x="150" y="812"/>
      <point x="184" y="838"/>
      <point x="243" y="838" type="curve" smooth="yes"/>
      <point x="358" y="838"/>
      <point x="567" y="736"/>
      <point x="788" y="725" type="curve" smooth="yes"/>
      <point x="791.504" y="724.869"/>
      <point x="794.947" y="724.802"/>
      <point x="798.327" y="724.802" type="curve" smooth="yes"/>
      <point x="898.167" y="724.802"/>
      <point x="944.295" y="782.928"/>
      <point x="953" y="958" type="curve"/>
      <point x="834" y="958" type="line"/>
      <point x="829" y="884"/>
      <point x="797" y="860"/>
    </contour>
  </outline>
</glyph>
<glyph name="notequal" format="1">
  <advance width="904"/>
  <unicode hex="2260"/>
  <outline>
    <contour>
      <point x="357" y="253" type="line"/>
      <point x="467" y="535" type="line"/>
      <point x="856" y="535" type="line"/>
      <point x="856" y="654" type="line"/>
      <point x="512" y="654" type="line"/>
      <point x="563" y="785" type="line"/>
      <point x="856" y="785" type="line"/>
      <point x="856" y="904" type="line"/>
      <point x="609" y="904" type="line"/>
      <point x="706" y="1154" type="line"/>
      <point x="566" y="1186" type="line"/>
      <point x="461" y="904" type="line"/>
      <point x="48" y="904" type="line"/>
      <point x="48" y="785" type="line"/>
      <point x="417" y="785" type="line"/>
      <point x="367" y="654" type="line"/>
      <point x="48" y="654" type="line"/>
      <point x="48" y="535" type="line"/>
      <point x="322" y="535" type="line"/>
      <point x="228" y="285" type="line"/>
    </contour>
  </outline>
</glyph>
<glyph name="lessequal" format="1">
  <advance width="1051"/>
  <unicode hex="2264"/>
  <outline>
    <contour>
      <point x="998" y="246" type="line"/>
      <point x="998" y="404" type="line"/>
      <point x="242" y="618" type="line"/>
      <point x="998" y="813" type="line"/>
      <point x="998" y="996" type="line"/>
      <point x="49" y="699" type="line"/>
      <point x="49" y="546" type="line"/>
    </contour>
    <contour>
      <point x="43" y="0" type="line"/>
      <point x="1003" y="0" type="line"/>
      <point x="1003" y="121" type="line"/>
      <point x="43" y="121" type="line"/>
    </contour>
  </outline>
</glyph>
<glyph name="lozenge" format="1">
  <advance width="1055"/>
  <unicode hex="25CA"/>
  <outline>
    <contour>
      <point x="452" y="0" type="line"/>
      <point x="591" y="0" type="line"/>
      <point x="1024" y="699" type="line"/>
      <point x="591" y="1398" type="line"/>
      <point x="452" y="1398" type="line"/>
      <point x="31" y="699" type="line"/>
    </contour>
    <contour>
      <point x="529" y="159" type="line"/>
      <point x="213" y="699" type="line"/>
      <point x="529" y="1239" type="line"/>
      <point x="849" y="699" type="line"/>
    </contour>
  </outline>
</glyph>
